<?xml version="1.0" encoding="utf-8"?>
<!-- Generator: Adobe Illustrator 21.1.0, SVG Export Plug-In . SVG Version: 6.00 Build 0)  -->
<svg version="1.1" id="Layer_1" xmlns="http://www.w3.org/2000/svg" xmlns:xlink="http://www.w3.org/1999/xlink" x="0px" y="0px"
	 viewBox="0 0 191 41" enable-background="new 0 0 191 41" xml:space="preserve">
<g>
	<path fill="#FFFFFF" d="M17.8,33.4c-1.2,0.1-3.7,0.1-4.2,0c-0.3,0-0.9,0-1-0.5c-0.1-0.8,0.9-0.7,0.8-1.9C13.1,28.5,13,27,12.8,26
		c-1.2,0.1-6.9,0.2-6.9,0.2c-0.1,0-1.2,4-1.2,4.1c-0.1,0.4-0.4,0.9-0.2,1.3C4.7,32,5.2,32,5.4,32.4c0.6,1.3-2.2,1.1-2.8,1
		c-0.4-0.1-0.7-0.2-0.7-0.6c-0.1-0.5,0.4-0.6,0.7-1c1-1.4,3.3-11.7,5.9-20.3c0.5-1.5,1.2-3.3,1.1-4.9c0-1.2-0.1-1.6,1.7-1.7
		c2.6-0.1,1.5,1.5,5.8,25.8c0,0.1,0.1,0.4,0.2,0.6c0.4,0.9,1.2,0.6,1.3,1.3C18.7,33.2,18.3,33.3,17.8,33.4z M12.7,24.4
		c-0.2-2.2-1.8-11.9-2.2-14.5c0-0.2-0.3-0.2-0.3,0C9.3,12.7,7,23,6.4,24.5C6.4,24.5,12.7,24.5,12.7,24.4z"/>
	<path fill="#FFFFFF" d="M36.7,6.6c-0.1,0.1-0.1,0.3-0.1,0.5c0,1.7,0.1,3.3,0.1,4.6c0,1.4,0,2.6,0,3.3v5.7c0,1.3,0,2.6,0,3.9
		c0,1.8,0,3.6,0,5.4c0,0.3,0,0.6,0,1c0,0.3,0,0.6,0,0.9c0,0.1,0,0.1,0,0.2c0,0.1,0.1,0.2,0.3,0.3c0.2,0,0.3,0.1,0.4,0.3
		c0,0.1,0,0.2,0,0.3c0,0.1,0,0.3-0.1,0.4c-0.2,0.3-0.6,0.2-1,0.2c-0.4,0-0.9,0-1.3,0c-0.1,0-0.3,0-0.4-0.1c-0.3-0.1-0.5-0.3-0.9-0.8
		v0c-0.3-0.4-0.6-1-1-1.9c-3.2-7.4-5.3-11.7-7.9-19c-0.1-0.2-0.3-0.9-0.5-1.1c0,0,0,0.1,0,0.1c0,1,0,2.1,0,3.2c0,1.3,0,2.6,0,3.9
		v5.7c0,0.7,0,1.8,0,3.3c0,1.3,0,2.8,0,4.6c0,0.3,0.1,0.4,0.1,0.5c0.2,0.3,0.9,0.6,0.9,1.2c0,0.5-0.6,0.4-1,0.5c0,0,0,0-0.1,0h-1.9
		c0,0,0,0-0.1,0c-0.4,0-1,0-1-0.5c0-0.6,0.7-0.9,0.9-1.2c0.1-0.2,0.2-0.9,0.2-1.4v0c0.1-5.3,0.1-9.4,0.1-11.2c0,0,0-4.7,0-6.9
		c0-1.2,0-2.3,0.1-3.4c0-0.9,0.1-2.3-0.3-2.8C22,5.9,21.7,6,21.4,5.9c-0.1-0.1-0.2-0.3-0.2-0.5c0-0.3,0.2-0.4,0.5-0.4
		c0.9,0,1.7,0,2.5-0.1c0.4,0,0.9,0,1.3,0c1.2,0.1,6.8,16.4,9.1,21.7c0.1,0.2,0.1,0.4,0.2,0.5c0-2.3,0-7.8,0-7.9c0-1.7,0-5.9,0-11.2
		c0-0.5-0.1-1.2-0.2-1.4c0,0,0,0,0-0.1c-0.1-0.3-0.9-0.6-0.9-1.2c0-0.5,0.5-0.5,0.9-0.5c0,0,0.1,0,0.1,0h0c0,0,0,0,0,0h1.9h0
		c0.4,0.1,1,0,1,0.5C37.6,6,36.9,6.3,36.7,6.6z"/>
	<path fill="#FFFFFF" d="M59.7,18.2c0,12.1-5.2,15.7-15,15.3c-1.1,0.1-3.6,0-4.1-0.1c-0.4-0.1-0.4-0.5-0.1-0.9
		c0.2-0.3,0.5-0.4,0.7-0.8c0.8-1.7,0.5-4,0.6-5.9c0.1-2.2,0.1-4.4,0.2-6.6c0-10.5,0.7-12.2-0.6-13C41,6.3,40.8,6.3,40.7,6
		c-0.1-0.5,0.2-0.8,0.6-0.9c0.9-0.2,5.3-0.3,8,0.1c4.2,0.7,7.8,3.2,9.5,7.2C59.6,14.3,59.7,16.2,59.7,18.2z M55,17.2
		c-0.2-3.1-0.5-6.9-3.1-8.9c-1.2-0.9-2.4-1.5-3.9-1.7c-0.5-0.1-1.3-0.3-1.8-0.1h0c-0.3,0.1-0.4,0.3-0.4,0.7
		c-0.1,0.9-1.2,24-0.2,24.4c0.7,0.3,3-0.4,3.6-0.7C54.5,28.7,55.3,22.5,55,17.2z"/>
	<path fill="#FFFFFF" d="M79.6,6c-0.3,0.4-0.8,0.4-1.1,0.6c-0.3,0.1-0.5,0.4-0.7,0.8c-0.2,0.3-0.3,0.6-0.5,0.8
		c-0.4,0.6-0.7,1.2-1,1.8c-0.5,0.8-1,1.6-1.4,2.4c-0.5,0.8-1,1.6-1.5,2.4c0,0-0.1,0.1-0.2,0.4c-0.4,0.8-1.3,2.5-1.3,4.6
		c0,0.1,0,0.3,0,0.4c0,2.2,0,4.3-0.1,6.5h0c0,0.2,0,0.4,0,0.6c0,0.5,0,1.3,0,2.2c0,0.3,0,1.1,0.1,1.7c0.1,0.3,0.3,0.6,0.6,0.8
		c0.3,0.1,0.5,0.2,0.5,0.7c0,0.2,0,0.3-0.1,0.4c0,0.4-0.6,0.4-1,0.4c-0.3,0-1.1,0-2.1,0h-0.2c-0.9,0-1.8,0-2.1,0c-0.4-0.1-1,0-1-0.4
		c-0.1-0.1-0.1-0.3-0.1-0.4c0-0.5,0.3-0.5,0.5-0.7c0.3-0.2,0.5-0.4,0.6-0.8c0.1-0.6,0.1-1.4,0.1-1.7c0-1.4,0-2.3,0-2.9h0
		c0-0.8,0-1.7,0-2.6c0-1,0-1.9,0-2.8c0-0.4,0-0.7,0-1.1c0-0.5-0.1-1-0.4-1.4c-0.2-0.4-0.4-0.8-0.4-0.8l-1.2-2.2
		c-1.7-3.1-3.2-6-4.3-8c0,0,0,0,0,0v0c-0.1-0.2-0.3-0.4-0.4-0.6c-0.3-0.3-0.6-0.5-1-0.7c-0.1,0-0.3-0.1-0.4-0.1
		c-0.2-0.1-0.4-0.2-0.5-0.5C59,5.8,59,5.7,59,5.7c-0.1-0.3,0.2-0.5,0.5-0.6c0.1,0,0.2,0,0.3,0C59.9,5,60,5,60.2,5
		c1.5-0.1,4.2-0.1,4.7-0.1c0.4,0,1.2,0,1.4,0.4c0,0.1,0,0.1,0.1,0.2c0,0,0,0,0,0c0,0.3-0.3,0.6-0.5,0.8c0,0,0,0.1,0,0.1
		c0,0,0,0.1,0,0.1c0,0,0,0,0,0c-0.1,0.2-0.1,0.4,0.1,0.8c0.3,0.6,0.6,1.4,1,2.2c0.1,0.2,0.2,0.4,0.3,0.6l0,0.1
		c0.1,0.3,0.2,0.5,0.3,0.7c0,0.1,0.1,0.1,0.1,0.2c0,0.1,0,0.1,0.1,0.2l2.6,5c0.1,0.1,0.1,0.1,0.3,0.1s0.2,0,0.3-0.1l1.1-1.8l3.6-5.9
		c0.2-0.3,0.4-0.5,0.6-0.9c0.1-0.2,0.2-0.4,0.3-0.6c0.1-0.2,0.1-0.3,0.1-0.4v0c0-0.3-0.4-0.6,0-1.2C76.5,5.2,76.7,5,76.9,5
		c0,0,0,0,0.1,0h0c0.1,0,0.3,0,0.5,0c0.1,0,0.2,0,0.3,0c0.1,0,0.3,0,0.5,0c0.2,0,0.4,0,0.5,0c0.1,0,0.2,0,0.3,0c0.1,0,0.2,0,0.2,0
		c0.1,0,0.1,0.1,0.2,0.1c0.2,0.2,0.2,0.4,0.2,0.6C79.7,5.8,79.6,5.9,79.6,6z"/>
	<path fill="#FFFFFF" d="M96.3,10.5c0.6-0.5,1.3-1,1.5-1.8C98,8.1,97.7,7.1,97,6.9c-0.6-0.2-1.3,0.1-1.7,0.6c-0.9,1-1.1,2.4-0.7,3.7
		c0.6,2.1,2.3,3.3,3.9,4.6c2.4,2.1,4,5,4.2,8.2c0.3,3.9-1.4,6.8-4.8,8.7c-4.4,2.5-9.8-0.4-11.4-4.8c-0.9-2.5-1-6.3,0.9-8.5
		c2.2-2.7,8.3-0.9,7,3c-0.5,1.4-3.3,2.8-4,0.8c-0.4-1.2,0.8-1.2,1-1.9c0.3-0.6-0.3-1.4-1.1-1.4c-0.7,0-1.1,0.7-1.4,1.2
		c-1.6,2.7-0.9,7.1,1.5,9.1c1.5,1.3,3.9,1.6,5.7,0.6c1.6-0.8,2.8-2.8,2.7-4.6c-0.2-3.9-3-6.8-5.3-9.7c-2.1-2.4-3.5-5.8-2.1-8.9
		C92.5,5.7,95,4.5,97.3,5c2,0.5,3,2.4,3.3,4.2c0.2,1.5,0.4,4.5-1.9,4.3c-1-0.1-3.1-0.8-2.9-2.2C95.8,11,96,10.8,96.3,10.5z"/>
	<path fill="#FFFFFF" d="M119.4,33c0,0.5-0.2,0.4-0.6,0.4c-1.3,0-11.9,0-12.5-0.1c0,0-0.2,0-0.4-0.1c-0.4-0.1-0.7-0.4-0.7-0.7
		c0-0.4,0.2-0.5,0.5-0.7c1.1-0.7,0.8-2.4,0.8-3.5v0c-0.1-6.7-0.1-13.4-0.1-20c0-2.3-1-1.6-1.2-2.4C105.1,5.4,105.3,5,106,5
		c-0.4,0,13.6-0.3,14,0c0.3,0.2,0.3,0.3,0.3,0.5c0,0.6-0.2,0.6-0.6,0.8c-0.6,0.4-0.4,1.7-0.4,4.6c0,0.6-0.3,1.5,0.4,1.9
		c0.2,0.1,0.4,0.2,0.4,0.5c0,0.6-0.8,0.6-2.2,0.6c-0.3,0-1.2,0-1.5,0c-0.3,0-0.6,0-0.7-0.3c0,0,0-0.1,0-0.1c0-0.4,0.5-0.6,0.6-0.8
		c0.2-0.4,0.3-0.8,0.2-3c-0.1-3,0.1-3.1-0.2-3.4c-0.1-0.1-0.4-0.2-0.5-0.2c-6,0-5.3-0.4-5.3,3c0,3.8-0.3,9.6-0.2,11.8
		c2.7,0,3.2,0.1,3.6-0.1c0.3-0.2,0.7-0.8,0.9-1.4c0.1-0.3,0.1-0.5,0.2-0.8c0.3-0.4,1.3-0.5,1.5,0.5c0.3,1.2,0.2,4.8,0.1,5.5
		c-0.1,0.4,0,1.2-0.6,1.2c-0.4,0-0.7-0.3-0.9-0.6c-0.3-0.4-0.4-2-1.5-2c-0.4,0-3.1,0-3.2,0c0,0,0,0.9,0,7.2c0,2.1-0.2,1.5,5.6,1.5
		c0.7,0,0.8-0.6,0.8-1.3c0-1.9-0.8-1.4-0.8-2.1c0,0,0-0.1,0-0.1c0-0.1,0.1-0.2,0.2-0.3c0.4-0.1,3-0.1,3.7,0c0.4,0.1,0.5,0.4,0.4,0.7
		c-0.1,0.3-0.4,0.3-0.6,0.5C119.3,29.9,119.4,30.6,119.4,33z"/>
	<path fill="#FFFFFF" d="M148.9,35.4c-0.5,0.7-1,1.3-1.7,1.9c-1.2,1-2.8,1.8-4.5,1.9c0,0-0.1,0-0.1,0c-2.9,0.3-5.9-0.9-7.6-3.3
		c-2.1-3-1.5-6.9-1.5-10.2c0-0.3,0-0.5-0.1-0.8c-0.3-1.2-1.5-1.9-3-2c-0.2,0-2.3,0-2.3,0.1c0,0,0,0.1,0,0.3c0,1.5-0.3,7.4-0.3,8.5
		c0,0.1,0,0.2,0,0.2c0.2,0.3,0.8,0.5,0.8,1.1c0,0.4-0.2,0.5-1.7,0.5c-0.5,0-1.2,0-2,0c-0.8,0-1.3,0-1.6-0.1
		c-0.4-0.1-0.4-0.2-0.4-0.5c0-0.1,0-0.3,0.1-0.4c0.2-0.3,0.6-0.5,0.7-0.7c0.2-0.4,1.2-24.2,0.5-25.4c-0.1-0.3-0.8-0.6-0.8-1.1
		c0-0.3,0.1-0.4,0.8-0.5c0.5,0,1.3,0,2.4,0c1,0,1.9,0,2.8,0c2.3,0,4.2,0.1,5.7,1c0.4,0.2,0.9,0.5,1.2,0.9c3.5,3.5,2.3,11.8-2.5,15
		c0.5-0.4,2,1,2.3,1.4c1.4,1.8,0.4,4.8,0.2,6.8c-0.2,2.9,0.1,6.7,3.6,7.4c1.5,0.3,3.5,0.3,4.8-0.5c1.4-0.7,2.9-2.3,3.6-3.8
		c1.1-2.5,1.3-4.8-0.8-6.9c-3.2-3.1-8.5,0-7.2,2.6c0.1,0.3,0.3,0.6,0.7,0.7c0.6,0.1,1-0.6,1.6-0.8c0.7-0.3,1.5,0.1,1.9,0.7
		c1.2,2.1-3.1,4.6-5.4,1.3c-3.1-4.6,4.2-9.8,9-5.8C151.4,27.1,151.3,31.9,148.9,35.4z M134,16.4c0.3-0.7,0.4-1.4,0.5-2.2
		c0.1-1.3,0.1-2.5-0.3-3.7c-0.1-0.4-0.3-0.8-0.4-1.2c-0.1-0.1-0.1-0.3-0.2-0.4c0-0.1-0.1-0.2-0.2-0.3c-0.8-1.2-1.9-1.6-3.3-1.8
		c-0.1,0-0.3-0.1-0.5-0.1c-0.4,0-1.2-0.2-1.2,0.5c0,0,0,2.2,0,4.8c0,1.3,0,2.7,0,4c0,1.6,0,3-0.1,4c0,0.4,0,0.7,0,0.9
		c0,0.1,0,0.2,0,0.3c0.1,0,0.3,0,0.4,0c0.1,0,0.2,0,0.3,0c0.1,0,0.2,0,0.3-0.1c0.1,0,0.2,0,0.3-0.1c0.1,0,0.1,0,0.2-0.1
		c0,0,0,0,0.1,0c0.1,0,0.2-0.1,0.3-0.1c0.1,0,0.2-0.1,0.3-0.1c0.1,0,0.1-0.1,0.2-0.1c0.1,0,0.1-0.1,0.2-0.1c0.1-0.1,0.3-0.1,0.4-0.3
		c0,0,0,0,0.1,0c0,0,0,0,0,0c0.1-0.1,0.2-0.1,0.3-0.2c0.3-0.2,0.5-0.4,0.7-0.7s0.4-0.5,0.6-0.8C133.4,18,133.8,17.2,134,16.4z
		 M130.9,22.9L130.9,22.9L130.9,22.9C130.9,22.9,130.9,22.9,130.9,22.9z M140.2,12.8c0.3-2.6,1.1-5.4,3.3-6.9
		c0.6-0.4,1.4-0.7,2.3-0.8c2.7-0.3,4.6,1.7,5.2,4.2c0.1,0.5,0.2,0.9,0.3,1.4c0.4,3.5,0,11.6-4.8,11.9c-2.2,0.1-4.2-1-5.1-3
		C140.3,17.4,139.9,15,140.2,12.8z M144,15.3v0.3c0.1,1.8,0.3,5,2.2,5.5c0.1,0,0.3,0,0.4,0c1,0,1.7-1,2.2-3.1
		c0.3-1.1,0.4-1.9,0.5-2.8c0.4-2.8,0.3-4.9-0.4-6.8c-0.4-1-0.9-1.6-1.5-1.7c-0.2,0-0.4,0-0.5,0c-1.7,0-2.6,1.5-2.8,5l0,0.1
		C144,13,143.9,14.2,144,15.3z"/>
	<path fill="#FFFFFF" d="M169.4,6.6c-0.1,0.1-0.1,0.3-0.1,0.5c0,1.7,0.1,3.3,0.1,4.6c0,1.4,0,2.6,0,3.3v5.7c0,1.3,0,2.6,0,3.9
		c0,1.8,0,3.6,0,5.4c0,0.3,0,0.6,0,1c0,0.3,0,0.6,0,0.9c0,0.1,0,0.1,0,0.2c0,0.1,0.1,0.2,0.3,0.3c0.2,0,0.3,0.1,0.4,0.3
		c0,0.1,0,0.2,0,0.3c0,0.1,0,0.3-0.1,0.4c-0.2,0.3-0.6,0.2-1,0.2c-0.4,0-0.9,0-1.3,0c-0.1,0-0.3,0-0.4-0.1c-0.3-0.1-0.5-0.3-0.9-0.8
		v0c-0.3-0.4-0.6-1-1-1.9c-3.2-7.4-5.3-11.7-7.9-19c-0.1-0.2-0.3-0.9-0.5-1.1c0,0,0,0.1,0,0.1c0,1,0,2.1,0,3.2c0,1.3,0,2.6,0,3.9
		v5.7c0,0.7,0,1.8,0,3.3c0,1.3,0,2.8,0,4.6c0,0.3,0.1,0.4,0.1,0.5c0.2,0.3,0.9,0.6,0.9,1.2c0,0.5-0.6,0.4-1,0.5c0,0,0,0-0.1,0H155
		c0,0,0,0-0.1,0c-0.4,0-1,0-1-0.5c0-0.6,0.7-0.9,0.9-1.2c0.1-0.2,0.2-0.9,0.2-1.4v0c0.1-5.3,0.1-9.4,0.1-11.2c0,0,0-4.7,0-6.9
		c0-1.2,0-2.3,0.1-3.4c0-0.9,0.1-2.3-0.3-2.8c-0.1-0.1-0.4-0.1-0.7-0.1c-0.1-0.1-0.2-0.3-0.2-0.5c0-0.3,0.2-0.4,0.5-0.4
		c0.9,0,1.7,0,2.5-0.1c0.4,0,0.9,0,1.3,0c1.2,0.1,6.8,16.4,9.1,21.7c0.1,0.2,0.1,0.4,0.2,0.5c0-2.3,0-7.8,0-7.9c0-1.7,0-5.9,0-11.2
		c0-0.5-0.1-1.2-0.2-1.4c0,0,0,0,0-0.1c-0.1-0.3-0.9-0.6-0.9-1.2c0-0.5,0.5-0.5,0.9-0.5c0,0,0.1,0,0.1,0h0c0,0,0,0,0,0h1.9h0
		c0.4,0.1,1,0,1,0.5C170.3,6,169.6,6.3,169.4,6.6z"/>
	<path fill="#FFFFFF" d="M184.6,12.6c0-1,0.1-2.2,0-3.2c-0.2-1.8-1.5-3-3.3-3c-2.6,0-3.1,3.9-3.3,6c-0.3,3.2-0.5,6.4-0.5,9.7
		c0,1.7,0.1,3.3,0.2,5c0.1,1.2,0.1,2.5,0.6,3.6c0.7,1.4,2.1,1.7,3.5,1.8c0.9,0,2.7,0,2.7-1.2c0-1.6,0.1-2.5,0.1-3.6c0-0.3,0-0.6,0-1
		c0-0.3,0-1.2,0-1.9v-0.3c0-0.3-0.3-0.6-0.6-0.6c-0.2,0-0.4,0-0.6,0c-0.6,0-1.2,0-1.8,0c-0.6,0-1.2,0.2-1.8,0.2
		c-0.1,0-0.2,0-0.3-0.1c0,0,0,0,0,0c-0.1-0.1-0.1-0.2-0.1-0.3c0-0.2,0-0.4,0-0.6c0-0.1,0-0.2,0.1-0.3c0,0,0,0,0.1,0
		c1.5-0.1,3.2-0.1,4.7-0.1c0.1,0,0.1,0,0.2,0c0.2,0,0.4,0,0.6,0c0.9,0,2.1,0,2.9,0c0.3,0,0.5,0,0.7,0.1c0.3,0.1,0.5,0.3,0.6,0.6
		c0,0,0,0.1,0,0.1c0,0.1,0,0.1,0,0.2c-0.1,0.3-0.3,0.4-0.5,0.5c-0.1,0.1-0.2,0.1-0.3,0.3c0,0,0,0.1-0.1,0.1
		c-0.1,0.2-0.1,0.4-0.2,0.6v0c0,0.7,0,1.4,0,2.1c0,0.1,0,0.2,0,0.3c0,0.3,0,0.5,0,0.8v0c0,0.1,0,0.1,0,0.2c0,0.2,0,0.4,0,0.5v0
		c-0.1,1.2-0.4,2.3-1.6,3.4c-0.6,0.5-1.2,0.8-1.9,1c-0.9,0.3-1.8,0.3-2.8,0.3c-3.1,0-5.7-0.7-7.2-3.6c-1.6-3.2-1.9-6.9-1.7-10.4
		c0.1-2.3,0.4-4.6,0.9-6.8c0.4-2,1-4.1,2.4-5.6c1.4-1.4,3.2-2.3,5.2-2.3c5.9,0,6.7,7.4,6.7,11.4c0,0.5,0.1,1,0.1,1.7c0,0,0,0,0,0.1
		c0.1,0.3,0.3,0.5,0.6,0.7c0.2,0.1,0.4,0.2,0.5,0.5c0,0,0,0.1,0,0.2c0,0.1,0,0.1,0,0.1c-0.1,0.4-0.4,0.5-0.6,0.6c0,0-0.1,0-0.1,0
		c-0.1,0-0.3,0-0.5,0c-0.8,0.1-2.1,0.1-3,0.1c-0.1,0-0.3,0-0.4,0c-0.1,0-0.3,0-0.4-0.1h0c0,0,0,0-0.1,0c-0.2,0-0.4,0-0.6-0.1
		c-0.1-0.1-0.3-0.1-0.3-0.4v0c0,0,0-0.1,0-0.1c0.1-0.8,1.2-0.9,1.3-1.7c0-0.1,0-0.3,0-0.4c0-0.6,0-1.3,0-1.9
		C184.6,14.6,184.6,13.6,184.6,12.6z"/>
</g>
</svg>
