<?xml version="1.0" encoding="utf-8"?>
<!-- Generator: Adobe Illustrator 21.1.0, SVG Export Plug-In . SVG Version: 6.00 Build 0)  -->
<svg version="1.1" id="Layer_1" xmlns="http://www.w3.org/2000/svg" xmlns:xlink="http://www.w3.org/1999/xlink" x="0px" y="0px"
	 viewBox="0 0 1167 778" enable-background="new 0 0 1167 778" xml:space="preserve">
<g>
	<path fill="#FFFFFF" d="M1167.4,388.1c0,8.8,0,17.6,0,26.4c-6.9,9.3-8.3,21.3-11.9,32.1c-4.1,12.4-7.8,12.2-19.6,14.9
		c-17.2,3.9-29.8,18.5-47.8,17.7c0.4-1,4.2-7.7,3.1-9.7c-2.4,1.5-7.7,13.3-10.7,11.6c1.5-12.5,20.1-30.8,29-39.4
		c5.6-5.3,10.9-10.6,15.9-16.6c5.3-6.5,16.5-14.5,20.2-21.5c-2-1.5-3.7,1-5.9,0.4c3.8-5.7,8-9.8,7.1-16.9
		c-3.3,4.8-14.7,28-21.5,24.9c-5.9,18.3-27.8,34-38.7,50.2c-4.8,7.1-9,17.2-15.9,22.1c-7,5-17.7,5.7-22.2,13.8
		c-5.5,10,3.1,17.1-6.9,24.6c-10.3,7.7-23,12.6-33.9,19.6c-10.4,6.7-20.9,13.6-31.1,20.7c-7.8,5.5-17.9,16.7-27.1,18.6
		c1.8-11.4-1.2-24.1,5.6-34.3c6.8-10,17.7-10.8,28.3-13.7c11.5-3.1,12.6-6.3,0.2-3.2c-6,1.5-11.5,1.2-17.3,3.4
		c-5.8,2.2-10.2,7.2-15.8,9.6c-1.2-5.6,2.2-11.8,2.8-17.3c0.7-5.9-0.9-12,0.1-17.8c1.6-9.3,2.4-20.7,10.3-26.3
		c-2,0.3-3.4,0.5-5.3,0.8c3.1-4.9,4.2-10.4,7-15.3c3.9-6.8,10.4-11.8,15-17.9c10.2-13.6,15.8-29.8,23.4-44.9
		c5.6-11.1,12-23.2,18.2-33.2c3.8-6.1,16.9-16.1,13.3-25.5c-9.5-3.8-2.6-14,0.9-19.7c-0.7-1.1-1.2-1.9-1.8-2.7
		c-2.1,3.9-7.2,7.5-8.3,11.8c-1.6,6.1,2.8,6.5,3.7,11.8c0.8,4.7-1.9,14.8-7.6,16.1c-1.9-2-0.4-4.8-1.5-7.1
		c-2.4,3.1,0.1,12.4-1.8,16.7c-1.9,4.3-4.8,6.8-8.8,9.5c-0.7-12.1-3.6-23.3-6.2-34.6c-4.4,0.9,3.2,32.4,2.4,38.2
		c-1.2,8.8-8.3,28.9-15.2,34.9c-0.5-0.3-0.8-0.5-1.5-0.9c0,1.2,0,2.1,0,3c-0.1,0-0.2,0-0.4,0c-0.3-0.9-0.5-1.8-0.8-2.6
		c-1.9,8.7-5.8,26.5-15.9,30c0.3-2.5,0.7-4.8,1.1-7.7c-4.4,3.8-5.9,10.5-8.5,15.2c-1.2,2.2-10.4,19.8-11.8,20
		c-1.6-3.9-0.4-8.6-2.7-12.3c-0.6,0-3,65.4-7.5,71.9c-6.4-8-16-16.2-14.6-26.8c0.7-5.1,2.2-9.2,2.4-14.7c0.2-5.4-0.2-10.3,1.1-15.6
		c2.5-10.7,3.8-21.6,6.2-32.3c2.7-12.3,13.5-13.7,24.8-9.9c0.2-1,0.3-1.6,0.4-2.2c-10.6-3.8-12.2-1.1-22.8,0.4
		c1.5-8.8,5.7-25.3,2.6-33.8c-1,9-0.7,17.7-2.9,26.6c-2.2,8.9-7,8.1-14.7,12.8c-8-13.9-7.6-23.8-7.6-39.3c0.7-0.3,1.2-0.5,1.8-0.7
		c-5-12.1,15.9-34.4,24.3-41.4c-2.2,0-3.3,2.2-5.3,1.3c1.4-1.5,2.6-2.8,4-4.3c-10.2-2.8-15.7,26.3-23.7,29c0-6.2,1.2-57.8-7.3-57.8
		c0.3,4.3,0.3,8.5-1.5,12.5c3.1,5,5.2,21.3,3.4,26.3c-10.4-14.1-11.8-35.2-24.3-47.1c-1,5.3,5.5,10.3,5,16.1
		c2.6-0.4,16.4,32.7,17.4,37.3c3.1,14.5-1.8,29.6-1,43.8c0.7,12.5,11.2,25.9,8.9,38.4c-0.8,4.2-2.4,8.3-3.3,12.4
		c-1.3,6.4-0.6,18.8-4.1,23.7c-12.3-12.6-18.6-29.8-31.9-41.4c-14.4-12.5-34.1-17.1-37.4-38.6c-1.5,1-2.7,1.8-4.1,2.7
		c-1.5-1.4-3.2-1.6-5.2-0.5c10.2,14.2,20.8,22.4,34.9,32.5c13.7,9.8,20,23.2,30,36.2c18.7,24.1,29.3,47.2,16.1,77.6
		c-0.2-0.1-0.4-0.1-0.6-0.2c1.2-6.3,3.8-13.1,3.8-19.5c-4.7,7.9-4.4,15.5-5.2,24.3c-0.9,9.5-3.7,19.1-5,28.6
		c-3.2-2.7-8.4-9.5-13.2-6.6c-0.1,0.5-0.1,1.1-0.2,1.5c-2.7-0.2-4.4-3.1-7.9-2c8.3,5.8,18.9,10.5,21.5,20.6
		c2.4,9.3,3.7,22.4-4.8,28.7c-2.1-1.8-6.8-7.4-8.4-8.3c-0.9,0.8-1.8,1.6-3,2.6c3.5,3.7,5.6,5.4,9.6,8.1c-15.3,13-32.8,23-47.7,36.6
		c-7.1,6.5-14.5,12.9-21.5,19.6c-6.9,6.6-12.2,15-20.3,20.2c0.4-6.9,1.4-12.4,3.4-19c-1.2,0.7-1.9,1.1-2.9,1.7
		c0-12,6.3-22.4,8.3-33.8c-3.3-0.7-5.3,8.9-6.1,10.9c-0.1-1.1-0.1-2.3-0.2-3.4c-0.2,0-0.3,0-0.5,0.1c0.1,1.1,0.3,2.2,0.4,3.4
		c-0.8,1.6-1.2,3.3-1.4,5c-0.2,0-0.4,0-0.6,0c-0.6-2.7-1.1-5.3-1.7-8c-2.7,11.8,0.1,24.6-5.8,36.2c-11.4-17.4,3.2-39.3,6.9-56.7
		c-3.6,3.6-4.4,8.5-7.3,13.1c-2.7-13.3,9.4-31.9,13.9-43.8c3.9-10.3,1.8-23.2,6.2-32.8c5.7-12.3,20.7-21,26.9-33.3
		c4.5-9,17-31.1,13.3-41.3c-1.4,0.4-16.9,53.2-22.8,47.8c-2.4,13.3-20.9,24.1-30.5,31.6c-11.7,9.2-27.3,18.3-40.3,25.8
		c-0.6-1.1-1.1-2-1.6-2.9c0-3.2,0-6.3,0-9.5c-0.2,0-0.5,0-0.7,0c0,3.1,0.2,6.3,0.7,9.4c-1.6,11.5-20.6,20.3-26.4,30.9
		c-4.1-7-2.4-17.6-2.4-25.5c0-11.4,4.1-16.4,10.2-26.1c11-17.4,16.5-33.4,18.6-53.7c-3.7,3.3-1.7,12.9-2.9,17.6
		c-1.2,4.8-3.6,8.5-5.7,13c-4.5,9.5-7.8,19.7-14.9,27.7c-0.3-0.4-0.5-0.6-0.7-0.8c-0.4,1.1-0.7,2.1-1,3c-0.3,0.1-0.6,0.3-0.9,0.4
		c-0.4-0.9-0.8-1.8-1.2-2.7c-0.2,5.5-0.2,5.5-1.5,6.4c-4.9-12.1,5.1-35.2,8.2-47.3c4-15.5,9.4-31.2,17.2-45.5
		c5.7-10.4,12.2-20.5,16.2-31.6c4.1-11.5,13.7-26.1,13.7-38.6c-0.5-0.1-1-0.3-1.7-0.5c0-1.2,0-2.4,0-3.6c-2.9,2.7-2.9,12.7-4.1,16.6
		c-1.7,5.2-4.2,10.2-6.2,15.2c-4.1,10.5-6.9,22.1-15.4,29.9c-0.4,6.7-6.7,14.2-9.4,20.3c-3.7,8.3-6.3,17.9-10.8,25.7
		c-1.1-8.6,4.5-21.3,7.6-29c0.9-2.3,11-17.9,9.9-19.7c-20.4,16-16.4,47.6-23,69.7c-2-6.7,1-12.9,1.6-19.3
		c-7.1,7.8-3.7,21.8-4.3,31.1c-0.7,11.5-2.3,23.5-4.2,34.8c-2.7-4.3-2.1-7.6-3.7-12c-0.5,0.7-0.8,1.2-1.4,2.2
		c-4.7-13.3-17.7-40.6-13.5-54.6c-5-4.5-1.7-18.2-2.4-24.5c-0.2,0-0.4,0-0.7,0c-0.5,2.5,0.3,5.3-1.1,7.8c-2.4-4-2.1-10.1-2.8-14.6
		c-0.7-4.3-0.1-16.6-2.8-19.6c-0.1,2.1,0.8,17.1-0.6,18.5c2.1,7.8,7.5,24.9,4.7,31.6c5.2,18.6,8.9,37.5,16.1,55.4
		c4.6,11.4,9.6,15.9,1.5,27c-2.5,3.3-17.1,19-21,18.4c-3.6,6.1-10.3,11.2-15.2,16.3c-0.7-5.5,0.4-12.3,5.8-15.4
		c-1.7-4.4-5.7,4.8-9.4,2c-0.6,7-1.7,15.9,2.2,22.1c2.4,3.9,7.8,6.5,10.1,10.8c3,5.8,1.9,3.5-0.3,10.8c-3.3,10.7,1.9,18.1,8.4,26.2
		c-2.6,8.9-6.6,15.7-7.7,24.3c-1.2,9.6-1.9,21.4-0.7,31c2.8,0,5.5,0,7.8,0c0.3-6.9,0.8-13.6,1.6-20.4c0.3,0,0.5-0.1,0.8-0.1
		c2.4,6.9,4.9,13.8,7.3,20.5c1.6,0,2.9,0,4.1,0c-2.1-6.3-4.9-12.4-7-18.6c-3-8.8-1.2-14.2,0.1-23.2c2.2-15.3,8.4-31.3,20.7-42.2
		c5.5,4.8,3.8,14.2,4.6,20.8c1,9.2,3.2,17.3,6.8,25.9c4.5,10.8,19,26.1,17,37.3c4.4,0.5,9.7,0.4,11.2-0.1c1.7-4.6,3.3-8.9,4.9-13.2
		c3.9,2.5,6.1,6.1,8.3,13.4c6.2,0,12.5,0,19,0c0.1-1.2,0.2-2.2,0.3-3.3c-0.1,0-0.3,0-0.4,0c-0.5,1-1,1.9-1.6,2.9
		c-0.2-0.1-0.5-0.1-0.7-0.2c0.4-9.3,1.8-15.6,5.1-24.1c-1.3,0.7-2.3,1.1-3.5,1.7c-1.6-4.4-2.2-8.4,0.5-12c-0.8-3.3,0.3-6.4,0.9-9.7
		c0.4-0.1,0.9-0.1,1.3-0.2c1.5-9.7,13.6-12.8,20.2-19.2c7.4-7.1,12.4-16.8,19.8-23.8c9.6-9.1,16.4-14.2,29.8-15.7
		c11.9-1.3,24.5-1.2,36.5-1.7c7.1-0.3,20.1-2.6,25.8,2.1c5.2,4.3,12.8,18.9,13,24.9c0.5,9.4-6.8,23.5-11,31.3
		c-4.8,8.8-9,19.2-14.9,27.6c0.6-13.7-0.9-27.1-0.8-40.6c0-7.2,1.1-14.4,0.6-21.5c-0.4-6-3.9-14.8-0.5-20.6c-0.8,0.5-1.5,1-2.3,1.4
		c-1.9-3.1-1.9-3.6-4.2-1c-0.7-0.2-1.2-0.3-2.3-0.5c1.1,4.1,3,7.3,2.4,11.6c3.3,6.6,1,17.8,1.3,25.1c0.5,10.9,5.3,30.7,0.5,40.8
		c-7.1-9.3-12.9-19.3-21.3-27.5c0.3,7.5,11,16.8,14.6,23.1c4.4,7.6,5.7,12.8,2,21.2c-0.8-3.5-1.4-6.3-2-8.9c-1.4-0.9-2.7-1.8-4-2.6
		c-0.8,4.8,9.8,15.2-1,18.9c-0.6-2.5-1.1-4.9-1.7-7.4c-0.8,0.2-1.4,0.3-2.5,0.6c3.4,1.9,1.6,5,2.5,7.4c5.1,0,10,0,15.1,0
		c-0.8-8.5,4.6-14.4,10.1-21.4c3.3-10.8,10.2-19.5,14.5-29.7c1.8-4.2,3.5-19.8,7.2-21.9c6.6,9,8.1,25.3,10.2,36
		c1.7,9.1,2.4,29.8,7.9,37c6.5,0,13,0,19.6,0c1.3-2.2,1.7-4.7,3.5-6.7c2.2,1.9,5,8.4,8.7,6.1c-2-3.5-7.6-5.1-7.9-9.9
		c-0.4-5.2,5.7-11.8,8.3-15.6c4.9-7,16.1-18.4,25.3-19.4c-4.4,11.9,23.3,32.2,16.7,43.8c-0.2-0.3-4.9-8-6.1-8.7
		c-1.4,4.5,2.3,7.2,4.9,10.5c1.9-0.1,4,0.7,5.6-1.3c1.2,1.6,2.7,1.5,3.9,1.2c0.5-4.5-1.2-9.3-0.3-13.7c1.1-5,8.6-8.1,8.6-12.9
		c-3.2,1.1-6.9,7.6-9.8,7.4c-1.9-7.6-2.3-15.7-3.6-23.4c-1-6-1.7-20.3-6.2-24.8c0.7,3.6,1.3,6.6,1.9,9.4c-4.8,1.6-9.3,3-13.2,4.3
		c-6.2-2.1-5.7-22.2-8.7-27c-2.9,5.7,2.4,11.1,1.4,16.9c-1.2,7.1-5,8-10.6,13.4c-4.6,4.4-8.6,9.5-12.9,14.3c-3,3.3-7,11.2-10.8,13
		c0.2,2-0.4,4.2-2.2,6.6c-9.6-10.3-10.2-27.8-13.4-41.3c-2.7-11.3-13.7-26.3-13.2-37.7c0.6-14.9,23-11.3,33.2-13.7
		c8.2-1.9,15.3-6.3,23.2-8.7c5.7-1.8,14.5-0.1,19.1-3.4c2.1,0.4,3.3-1.3,5.3-1.9c-2.1-0.4-2.1-0.4-5.3,2c-4.1,0.2-8.3,0.4-12.4,0.7
		c-0.1-0.2-0.1-0.4-0.2-0.6c6.8-2.6,13-6.7,19.9-9.1c0.9-0.3,9.1-1.9,8.7-2c3.9,9.5,3.1,21.4,5.7,31.3c2.7,10.3,7.8,19.7,10.4,30
		c3.4,14,11,41.5-1.2,53.5c-0.5-0.4-0.9-0.6-1.2-0.9c-2.9,2.2-2.1,7-6,8.3c-0.7,3.4-1.4,6.6-2.1,9.9c3.8,1.6,11.6-17.8,14.3-20.2
		c0.9,6.5-0.6,13.8-1.1,20.3c6.6,0,13.1,0,19.9,0c-1.5-7.8-5.2-15.2-5.4-23.4c-0.2-7.9,1.9-16,2.8-23.9c0.7-6.3,2.4-31.7,8.2-34.4
		c-0.8-0.3-1.3-0.4-2.2-0.7c2.5-2.9,0.8-7.2,4.2-9.5c-4.3-3.2,1.7-22.8,3.4-26.8c-1,0.2-1.7,0.4-2.4,0.6c0.3-3.9-1.6-12.2,1.5-14.9
		c-0.8-0.6-1.4-1-2.2-1.6c0.2,1,0,1.8-0.6,2.6c-6.1-2.8-2.7-14.1-0.3-18.8c-0.9-4.3,1.4-10.6,2.1-14.9c-4.7,2.5-5.4,19.6-6.2,24.7
		c-1.3,7.9-2.1,15.9-3,23.8c-0.7,6-0.6,12.3-1.9,18.2c-1.3,6-1.7,16.8-4.8,21.8c-4.8-4.3-7-9.6-6.9-16c-0.6,0.7-0.9,1.1-1.3,1.5
		c-5.4-11.5,4.4-24.2-1.1-34.3c-2.4,3.8-2.5,8.3-3.9,12.5c-1.2-3.6-0.6-14.4-5.1-15.5c0.3,5.8,6.9,19.7,2.9,25
		c-2.9-7.6-10.2-28.2-6.7-35.4c-8-11.7-5.1-38.7-4-52.5c0.5-6.2,0.9-12,6.3-16.3c6.2-4.9,15.4-2.1,21.7-7.2c-0.6-0.5-1-0.9-1.5-1.3
		c0.4-0.8,0.7-1.5,1.1-2.4c-2-0.8-11.7,4.7-14.9,5.2c-0.1-0.2-0.2-0.4-0.3-0.6c23.1-25.2,57.8-39.4,92-38.5c0,60.4,0,120.8,0,181.2
		c-8.6,10.7-13.7,25.3-21.7,36.7c-3.8,5.4-24.7,29-22.5,35.4c13.1,0,14.1-5.7,21.2-16.3c7.4-11,15.1-21.7,22.9-32.4
		c0,16.4,0,32.8,0,49.2c-389,0-778,0-1167,0c0-259.4,0-518.8,0-778.2c389,0,778,0,1167,0c0,127,0,254,0,381
		c-0.9-3.3-1.7-24.1-5-24.4C1163.5,367.9,1164.7,377.5,1167.4,388.1z M357,639.7c-1.9,0.2-2.7,1.7-3.8,2.9c-1.5,0.7-3,1.3-4.6,2
		c-4.5,3-4.5,3-6.3,2.8c1.9-1.8,3.7-3.4,5.5-5c-11.6,2.6-20.9,16.7-32.8,16.2c6.6-20,11.2-38.9,23.2-56.6c-0.4-2.5,1.6-3.4,3.1-5
		c-0.9,0-1.4,0-2.4,0c1.9-3.5,2.1-7.5,4.7-9.9c-1.3-5.4,1.5-10.8-1.3-16c-0.8,13.3-2.7,23.8-9.8,35.7c-0.1,0-0.1-0.1-0.2-0.1
		c0.6-2.4,1.1-4.9,1.7-7.3c-5,3.9-5.6,18.2-10.9,21.4c-1.7-4.9,0-10.1-2.6-14.6c0.1,1.2,0.2,2.4,0.3,3.5c-0.2,0.1-0.4,0.1-0.6,0.2
		c-0.7-1.4-1.4-2.9-2.1-4.3c-0.1,0.1-0.2,0.1-0.4,0.2c0.6,3,1.3,6,2,9.3c0.3-0.7,0.5-1.2,0.7-1.6c1.4,3.8,3.6,14.9-1.3,16.8
		c-1.3-4.1-1.7-8.3-3.7-11.9c0.8,4,1.6,8.1,2.6,12.6c-1.3-0.7-2-1.2-2.7-1.6c-0.1-1-0.5-1.7-1.8-1.5c0.6,0.5,1.3,0.9,1.9,1.4
		c2.3,4.1,1.7,23.9-5,24.5c-0.8,10.2-1.4,24.8-7.1,33.8c-5.3-2.2-1.4-18.9-1.2-22.8c-0.3,0-0.5-0.1-0.8-0.1
		c-0.4,7.8-1.1,15.6-3.2,23.4c0.6-0.6,1.1-1.2,1.7-1.8c2.5,4.2,2.6,4.7,0.1,6.5c-0.7-0.9-1.5-1.7-2.2-2.6c-2.2,3.7,4.8,12-4.3,14.6
		c-4.6,13.7-8.9,27.7-11.6,41.9c-2.6,13.1-4.5,22.5-15,31.3c4.8,0,9,0,12.8,0c4.6-8.7,4.1-31.3,11.5-36.6c-0.8-0.1-1.3-0.1-1.7-0.1
		c1.8-9.9,5.3-20.4,8.6-29.9c4.7-13.7,10.4-32.2,18.1-44.4c12.7,4.3,24.7,11.5,37.9,14.4c13.1,2.9,27.6,4.3,40.3,8.5
		c7.7,2.6,19.7,2.8,26,8.8c6.7,6.5,13.8,27.7,0.5,31c2.2,3.4,2.2,3.4-0.1,5.3c-0.9-0.8-1.8-1.6-3-2.6c0.3,1.3,0.5,2.2,0.7,3
		c-0.5,0.4-1,0.7-1.4,1c1.7,2.4,1.7,2.4,0.2,4c-5.6-4.5-16.1-28.2-25.6-23c0,0.7,0,1.4,0,2.2c-1.3-0.5-2-2.1-3.3-1.6
		c2.6,12.5,7.8,22.3,9.4,35.1c2.5,19.7-5.7,10.5-16.1,20.3c0.3,1.5,0.6,3,0.9,4.7c22.8,0,45.4,0,68.1,0c3.6-6.9,18.8-19.4,18.4-27.3
		c8.1-6.5,13.7-20.6,21.1-28.5c5.4-5.8,11.8-9.5,17.5-14.4c12.1-10.5,24.7-23.9,36.3-35.7c28.4-28.6,57.2-59.2,81.2-92
		c1.7-1.1,3.9-1.4,5-3.3c-0.1-0.2-0.2-0.3-0.4-0.5c-1.6,1.2-3.3,2.4-4.9,3.6c-1.5,0.6-2.2,2.6-4.6,2.3
		c11.9-20.5,25.1-40.1,36.4-60.8c6.3-11.5,11.7-23.7,16.9-35.7c2.7-6.2,6.7-14.1,7.9-20.7c1-5.3-0.9-11.1,3-15.7
		c4.5,2.7,9.3-9,12.6-11.2c5.7-3.9,14.6-2.7,21.3-2.9c-8-7.3,24.8-14.6,30.7-11.9c0.8-10.4-14.4-4.3-20.1-5.2
		c-7.1,3.6-14.1,6.6-21,10.6c-0.9-0.8-1.8-1.5-2.8-2.4c-1.2,2.2-2.7,3.7-5.2,3c-0.7-1.2-1.3-2.3-2.3-4.1c-1.5,3.9-1.8,5.4-6.1,5
		c-1.7,3.4-9.6,7.5-12.6,10c-6.4-1.9-7.2-14.4-8.5-19.5c-0.3,0.2-0.7,0.4-1.5,0.9c1.3-8.1-3.7-15.3-5.5-22.5
		c-3.3-13.2-8.3-27.3-10.6-40.6c-2.3-13.1-3.7-26.5-4.9-39.7c-0.6-6.3-7.2-39-1.3-42.3c-4.5-16.1,0.7-34.7,2.7-50.7
		c0.7-5.7,1.1-11.3,2.8-16.9c1.7-5.7,7.3-12.6,5.4-18.7c-0.8,0.3-1.6,0.6-3.1,1.1c4.1-7,6.7-14.8,10.5-21.9
		c-6.3,4.5-9.3,10.8-12.7,16.8c-1.2-4.8,0.1-8.8,0.6-13.3c0.9-7.6,1.2-15.5,2-23.1c0.8-0.1,1.3-0.1,1.6-0.1
		c1.3-17.4,3.9-35,3.7-52.3c-0.1-10.1-4-31.8,3.9-40.2c-0.6-0.4-1.2-0.8-1.8-1.1c3.7-7.2,8.4-17.5,9-25.6c-9.3-2.7-6,7.6-11.7,8.3
		c-4.6,0.5-2.9-9-8.4-8.2c0.1,0-2.9,37.8-2.9,41.7c-0.2,15.2,2,31-0.3,46c-0.9,5.8-3,11.4-3.5,17.3c-0.7,7.6,1,20.9-4.9,26.7
		C626.3,147.7,622.4,140,619,121c-0.4-2.1-1.4-12-4.7-10.6c-3.4,1.4,1.7,21.9,1.9,23.8c-3.9-1.8-3.6-2.2-6.9-1.1
		c-1-0.4-1.7-0.8-2.4-1.1c5.6,13.6,19.7,21.7,26.7,34.2c5.3,9.5,8.5,21.2,7.9,32c-0.7,13.3-4.7,28-7.4,41
		c-2.3,10.8,0.5,24.3-3.4,34.2c-4.3,0.3-7.6-9.2-11.2-6c4.6,9.6,8.5,17.9,11.1,28.4c1.8,7.3,9.1,34.2,3.2,40
		c-2.1-3.2-9.5-4.3-12.6-7.2c-1.4-1.3-5.3-9.9-8-6.7c3.8,6.6,6.5,14.7,10,21.6c15.8,5.2,18.5,32.3,22.5,45.9c2.4,8,4,16.4,5.3,24.7
		c1.9,11.8,7.3,22.1,9.6,33.6c3.6,18.1-8.6,39.8-16.1,55.6c-7.2,15.2-18.3,27.9-25.9,43c-2.3-9.9-5.7-19.1-8.9-28.7
		c-3.5-10.3-3.4-12.5,1.8-22c-3,0.3-3.6,5-6.1,6.2c-2.8-13-4.3-26.2-7.2-39.1c-1.6-6.9-3.9-28.5-10.6-30.7
		c-4.1,8.3,7.1,32.1,9.1,41.7c3.2,15.7,3.9,31.6,9,46.9c6.4,19.4,8.9,34-2.9,52.2c-7.7,11.9-15.8,24.8-31.1,24.8
		c1.7-1.4,2.9-2.5,4.2-3.7c-0.8-0.7-1.4-1.2-2.1-1.9c-4.6,5.1-14.4,7.4-21,9.9c-9.4,3.5-23.6,13.1-33.7,12c1.3-1.8,4-2.4,4.3-5.2
		c-3.1,2.6-6.2,5.3-9.3,7.9c-0.2-0.2-0.4-0.3-0.5-0.5c5.2-12.8,16-25.7,27-33.9c12.7-9.4,21.3-21.1,31.6-32.8
		c-3.3-1.8,0.9-4-1.6-6.6c-1,0.6-2,1.2-2.9,1.7c-0.8,7.2-16.3,30.6-23.8,28.9c0,2.9-2.3,3.5-4.7,5.1c0.9-4.5,2.2-8.2,1.5-12.3
		c-3.5,0.8-4.8,17.3-10.8,20.3c1.3-6.2,3.9-13.6,2.4-20c-3.4,4.1-1.1,16.2-7.2,16.8c-0.3,6.1-3.2,10.8-7.4,14.7
		c-0.9-0.3-1.5-0.5-2.5-0.8c0.7,0.9,1.2,1.5,2,2.4c-2,2.2-4.1,4.4-6.6,7.2c0.5-7.6,0.4-14.3-1.8-20.9c-3.7,3.8,1,12.9-1.3,17.6
		c-8.4-0.8-7.8-25.1-8.2-30.3c-0.7,0.5-1.2,0.8-1.7,1.1c-0.9-0.5-1.5-0.9-2.2-1.3c-0.2,0.1-0.3,0.3-0.5,0.4c4,5.9,2.9,16.7,5.1,23.5
		c2.2,6.6,6.6,12.6,7.5,19.6c-2.1,3.2-19.3,2.3-22.7,2.1c0,0.1-0.2,0.5-0.4,0.9c-0.8-0.2-1.5-0.4-2.2-0.6c-0.4-0.2-0.8-0.4-1.2-0.6
		c-0.1-2.6,0.6-4.6-2.9-4.6c-2.2-12.5-1.1-24-0.5-36.5c3.7-0.4,3.7-0.4,4.9-2c-0.6-0.4-1.2-0.9-1.8-1.3c0.9-3.1,3.6-1.2,5.3-1.9
		c-0.9-4-5-3.5-5.8-7.2c-0.8-3.8,3.3-11,5.4-14c-0.6-3.6,1.7-7.1,0.6-10.4c-0.2,0-0.4,0-0.6,0c-1.1,8.7-4.6,16.6-7.7,24.9
		c-7.4-2.6-8.7-7-8.3-14.5c-0.9,1-1.6,2-2.5,3c-0.1-1.1-0.2-1.9-0.4-2.8c-10.2,1.6-18.7-20.7-20.6-28.5c-3-12.6,2.1-24.8,2.1-37.2
		c-4.4,8.4-1.8,18.7-5.3,27c-8-13.8-13.2-35.3-7.8-50.3c2.9-7.9,6.9-15.6,10-23.4c1.9-4.8,4.4-18.6,9.4-21.2
		c-2.8-1.2,9.6-34.6,13.8-36.3c6.3-2.4,16.9,2.9,23.6,2.5c3.4-0.2,22.4-0.2,23.2-1.9c-0.2-1.4-1.1-2.2-2.7-2.3
		c-1.4-6.5,12.7-18.6,17.3-22.9c9.5-9.1,21.2-14,33.7-18.2c-1.5-1.2-2.6-2.1-3.6-2.9c-1.9-0.5-3.8,2-5.4,0.3
		c-2.9,1.7-5.5,3.6-8.8,4.2c-0.2-1-0.3-1.6-0.4-2.2c-0.5,4.6-10.2,8.6-13.5,11.3c-6.4,5.4-12.2,11.9-18,18
		c-7.3,7.7-9.8,9.1-20.4,9.5c-7.5,0.3-13.8,0.4-21.2-1.8c0.5-6.6,16.8-26.7,22.5-30c4.8-2.9,22.4,0.6,23.6-3.9
		c-5.9-2.6-12-4.2-18.7-3.3c-0.2-1.9-0.5-3.6-2.9-3.5c1.5-7.8-2.3-14.4-0.7-22.2c-9.4-0.4,3.1-51.6,4.5-57.8
		c-7.9,0.5-18.9-29.3-25.2-34.6c-1.4,20.2,17,33.7,12.9,55.7c-1.9,10.4-4.3,19.6-4,30.1c0.3,9.8,3.4,19.9,0.2,29.5
		c-2.7,8-8.8,14.7-14.3,21c-5.3,6-13.1,20-20.3,22c-18.8,5.1-34.9-17.3-47.3-27.9c-0.5,0.3-1.3,0.8-2.1,1.3
		c-10.6-4.4-21.6-7.6-32-12.1c-4.2-1.8-7.9-3.5-11.1-6.7c-3.9-3.9-4.6-12.7-9-15.4c-0.4,0.9-0.7,1.8-1.1,2.6
		c-9.4-4.7-12.5-26.2-25.2-26c5.2,7.8,10.4,16.5,15.9,23.9c4.2,5.6,9.9,14.6,14.7,19.4c12.2,12.3,33.2,12,47.4,20.7
		c6.3,3.9,13.7,10.2,19.2,15.2c2.9,2.7,6.5,9.9,9.4,11.1c3.6,1.4,4.8-0.5,8.1-0.2c11.4,0.9,11.1,1.9,7.6,11.6
		c-2,5.6-4.4,19.5-10.3,22c-0.9-1.2-1.8-2.3-2.9-3.7c-1.1,3,1,4,1.2,6.9c0.3,6.1-0.9,10.3-3.1,15.8c-2.1,5.2-6,16.5-12.8,16
		c-1.4,7-4.6,13.6-4.2,20.5c0.4,8,3.5,17.2,5.7,24.9c4.3,14.8,10.3,29,15,43.7c1.7,5.3,2.6,11,4.7,16.2c3.8,9.5,9.6,13.4,7.8,23.8
		c-1,5.9-9.3,42.9-14.1,43.8c-0.8-0.4-1.7-0.8-2.4-1.1c-6,8.7-4.9,20.4-5.2,30.9c-0.3,8.1,4.4,19.5-5.1,22c-9.3,2.5-29.6-5.1-39-7.1
		c-16.6-3.5-33.3-5.8-48.4-13.9c-0.6-3.3,9.7-9.8,12.2-6.3c0.4-0.7,5.1-5,4.7-5.6c1.8,0.9,3.3,0.2,4.5-2
		C355,642.2,355.9,640.8,357,639.7c0.9-1,2.3-1.5,2.6-3C358.4,637.4,356.9,637.9,357,639.7z M10.5,487.2c-1.6,0.4-0.6-1.8-1.8-1.8
		c-1.1,0.2-1.8,1-2,2.4c-1.8-1.4-3.5-2.7-5.5-4.3c-0.7,7.7,2.1,15.4,3.5,23c0.2,0,0.4-0.1,0.6-0.1c0.1-5.1-0.8-10-2.3-14.9
		c17.3,2,20.7,49.4,23,61.2c1.1,5.9,2.4,11.5,2.1,17.6c-0.3,5.6-3.8,11.8-3,17.3c1.3,9.3,7.7,17.3,2.5,27.8
		c-8.2-1.7-18.2-7.7-26.5-7.1c0,2.6,0,5.1,0,7.8c9,2.7,17.9,5.4,26.9,8.1c0.2,2.3,0.5,4.6-0.2,6.9c-1.7-0.1-1.4-3-3.6-2.3
		c-0.7,3,3.2,7.2,4,9.9c1.5,5,1.1,11.2,2.1,16.4c1.4,7.5,1.7,28.7-9,30.6c2.1-14.1,5.3-30.6,1-44.6c-4.3,4-1.7,18.5-2.3,23
		c-0.6,5-0.3,30.5-8.2,31.9c-0.1-4.1,5.3-9,3.4-12.7c-6.6,3.7-5.7,13.6-10.9,18.4c-1-1.9-1.9-3.6-2.7-5.3c-0.2,0.1-0.4,0.1-0.6,0.2
		c0,11.1,0.1,22.2,0.4,33.3c4.3,4.6,8.3,17.3,5.8,23.3c-1.2,2.8-13.5,15.3-5.5,19.3c0.9-0.6,1.8-1.2,2.8-1.8
		c0.2,0.1,0.4,0.3,0.6,0.4c-0.1,2.9-1.3,5.2-3.5,7.1c13,0,10.1-9.2,12.3-19.4l-0.1,0.1c5.5,1.3,3.6,12.6,7.7,15.5
		c2.4-0.9-0.4-4,2.5-4.6c3.5,1.6,5.1,4.8,6.3,8.4c3.9,0.1,7.7,0.1,11.5,0c-0.6-5.2-4.4-16.1-1.5-21c1.7-0.2,4.1,0.6,4.5-2.2
		c-1.5-0.3-2.9-0.7-4.4-1c-1.1-7.8-1.3-15.3,0.4-22.3c-4-13.3,3.4-29.3,3.6-42.7c0.2-13.4-7.7-26.4-6.9-40
		c11.4,9.5,34,24.3,36.8,39.8c4.3,0.7,6.2,15.8,7.3,19.5c-0.2,0.1-0.5,0.3-0.7,0.4c-3.5-5.7-6.5-11.8-12.5-15.5
		c-0.1,11.8,17.9,21.2,12.6,32.3l0.1-0.1c-7.2,3.8-14.2-9.4-10.6-14.9c-0.1-0.1-0.2-0.2-0.4-0.3c-0.8,0.6-1.5,1.1-2.2,1.7
		c-2.5-1.1-2.5-1.1-1.6-4.2c-6.8,0.8-8.5-24.1-9-29.1c-3.9,4.4-2,11.1-1.6,16.4c-0.2,0-0.3,0.1-0.5,0.1c-1.2-2.6-2.5-5.2-3.7-7.8
		c-0.1,0-0.3,0.1-0.4,0.1c-0.1,0.8-0.2,1.6-0.3,2.9c-1.5-1.3-2.6-2.3-4-3.4c-0.3,1-0.5,1.8-0.6,2.2c4.2,3,5.6,4.4,8.1,8.7
		c1.8,3.1-0.8,6.6,3.2,9.1c0.3,2.1-1.5,2.7-3.3,3.7c2.3,0.5,4.7-3.2,5.9-0.5c-0.5,0.3-0.9,0.6-1.6,1c2.6,4.3,6,8.1,9.5,11.7
		c4,4,12.7,7.2,15.6,11.3c2.7,3.9,3.9,25.7,0,28.5c1.1,5.1-0.1,11,1.2,15.7c4.6,0,8.9,0,13.5,0c0.6-3.9-0.2-8,1.4-11.7
		c-14.9-9.1,0.4-25.7,7.2-33.1c-5.4-1.1-0.6-5.8,0.8-8.7c4-8,9.9-13,18.6-15.7c7.9,10.6,15,21.6,23.1,31.9
		c9.7,12.4,10.1,21.7,11.4,37.1c3.7,0.6,15,0.5,16.7-0.1c1.3-9.1,3.7-20.8,10.3-27.8c1.8,8.4-1.9,28.2,8.9,28.2
		c1.5-7.8,2-15.5,6.9-21.7c1.2-0.3,1.8-1.3,2.6-2c-0.2-0.2-0.4-0.4-0.6-0.6c-0.6,0.9-1.3,1.7-1.9,2.6c-2.7,0,4.4-17,5.4-19.7
		c1.5-3.8,2.8-8.8,5.4-11.9c2-2.3,6.3-2.1,7.8-5c0.9-0.5,1.8-0.9,2.8-1.4c-0.1-0.2-0.3-0.4-0.4-0.6c-0.8,0.6-1.7,1.2-2.5,1.8
		c-2.1,1.1-4.1,2.8-7,2.9c0.8-2.6,1.2-4.9,3.5-6.2c-1.4-3.9,4.9-9.6,1.2-11.5c1.2-2.4,2.4-4.7,3.7-7.4c-1,0.2-1.7,0.3-2.6,0.5
		c0.3-4.9,0.1-17.6,4.9-21.1c-0.9-0.3-1.5-0.4-2.3-0.7c0-3.4,0-6.8,0-9.9c9.8-4.2,20.7-7.6,30-12.7c9.7-5.3,14.6-13.3,21.7-21.3
		c0.8,0.3,1.3,0.5,1.9,0.7c0.3,0,0.6,0,0.9,0c-5.2-5.1,19.6-22.6,24-23.1c0.4-3.4,1.9-5.9,4.1-7.5c3.8-10.1,10.2-19,13.9-29.3
		c3.1-8.5,7.6-16.7,10.4-25.3c2.7-8.3,5.6-13.9,10.4-21.2c1.7-2.6,15.4-18,12.5-20c-12.3,7.7-21.3,25.7-26.2,38.6
		c-6.8,17.6-13,36.5-23.8,51.9c-0.7-0.2-1.2-0.3-2.2-0.6c3.4,5-10.7,16.6-15.6,14.9c-5.1,6.4-14,21.1-21.6,23.9
		c3.2,10.5-33.1,21-39.5,23.4c3.9-16.3,9.8-32.6,20.2-45.8c6.1-7.7,18.5-36.3,29.6-35.1c-0.3,3.2-2.8,11.4-0.7,14.2
		c2.7-10,2.8-15.9,9-24.6c5.7-7.9,11.1-15,17.7-22.2c-0.8-1-1.5-1.9-2.3-2.9c3.6-11.1,10.6-22.1,15.9-32.5
		c4.4-8.7,6.7-21.1,13.8-27.8c-1.2-6,9.6-21.7,12.3-27.2c3-6.2,11.4-16.6,12.6-22.3c-0.9-0.2-1.9-0.4-2.9-0.7
		c0.1-1.3,0.3-2.4,0.4-3.5c-0.1-0.1-0.3-0.1-0.4-0.2c-0.9,1.1-1.8,2.3-2.8,3.4c-0.4-0.6-0.8-1.1-1.2-1.6c0.1,5.6-3.3,9.6-5.4,14.4
		c-1-2-1.8-3.7-2.7-5.4c0.9,14.4-7.8,24.2-14,37.2c-0.8-0.3-1.4-0.4-2.1-0.7c-3.5,16.8-12.9,39.1-23.2,53.5
		c-4.1-1.1-5.7-6.9-7.1-10.1c-0.1-0.8,0.3-1.7-0.8-2.5c-0.3,1.2,0.3,1.8,0.9,2.4c0.7,10.3,7,12,1.1,22.5
		c-3.6,6.3-7.4,12.5-11.3,18.6c-0.9-1.1-1.4-1.9-2.1-2.8c0.6,4.3,0.2,7.7-5,6.6c4.1,4.9-12.6,18.3-16.7,21.9
		c-0.6-0.3-1.1-0.5-1.6-0.7c-2.2,9-9.8,20.2-17.3,25.9c1.3,4.6-4.1,6.4-7.1,8.6c-3-1.7-2.7-4-3.6-7c-4.8,2.9-3.2,6.2-2,10.9
		c-0.6,0.1-1,0.2-1.5,0.3c-0.1,0.7-0.2,1.5-0.3,2.3c-1.1-0.7-2-1.3-3.3-2.1c0.8,4,3.7,3.7,3.5,8.3c-0.2,3.6-4.3,8.3-6.2,11.3
		c-0.1-1.4-0.2-2.2-0.3-3.5c-0.4,1.1-0.6,1.7-0.9,2.5c-5-5.2-5.4-19.6-6.9-26.4c-1.2,2.8,1.3,5.5-0.1,8c4.7,13.7,9.3,26.7-2.7,38.1
		c-1.4-0.4-0.8-2.5-2.4-2.4c1.4-2.5-0.5-4.8-0.9-7.2c0.3,2.4,0.6,4.8,0.9,7.2c2.5,6.3-14.1,31.6-18.8,37.4c-0.2,0-0.4-0.1-0.6-0.1
		c-1.9-11.7-0.9-23.4,1.6-34.3c-0.8,0.3-1.4,0.5-2.2,0.8c1.1-5,1.8-9.8,2.4-14.8c-0.3,0-0.6-0.1-0.9-0.1c-1,7.4-1.1,15.9-2.9,23
		c-1.7,1-2.1-1.1-3.7-1.8c3.8,8,3.6,12.5,2.5,21.2c-0.2,0-0.4,0-0.6,0.1c-2.6-7.2-5.3-14.4-6.2-22.2c0.2,9.6,1.9,18.8,7.2,28
		c-0.5,0.1-1.3,0.4-2.1,0.6c1.5,1.9,2.2,4,1.9,6.5c-2.9,1.2-0.4,8.4-2.4,11.1c-5.2,0.3-14.2-10-14.9-14.3
		c-15.3-7-17.3-34.5-16.8-48.6c0.3-9.3,4.2-16.8,8.4-24.9c1.9-3.6,5.4-14,9.8-14.8c-0.2-0.6-0.4-1-0.6-1.5c1.4-0.7,2.3-0.2,2.8,1.3
		c1.9-0.4,3.6-1.3,5-2.7c-2.1-0.9-3.9-1.6-5.9-2.5c3.3-2.6,5-7.8,8.4-9.9c-2.2-6.9,27.7-25.7,32.7-29.6c10.6-8.4,21.7-15.8,33-23
		c1.8-3.4,2.4-7.6,6.2-10.3c0.3,1.2,0.6,2.1,0.8,2.9c0.2,0,0.4,0,0.6,0c0.4-11.4,11-27.5,16.5-38c-0.9-8.7,2.6-18.8,4.3-27.3
		c1-4.8,0-6,2.3-11c2.2-4.9,8.7-8.7,10-13.6c-6,2.7-7.9,11.1-13.1,14.3c0,25.6-9.8,54.4-26.9,73.6c0.4-2.3,0.8-4.1,1.1-6
		c-0.2-0.1-0.4-0.1-0.6-0.2c-0.7,2.4-1.5,4.7-2.3,7.2c-1.2-1.1,0.6-2.7-1.3-3.6c-0.5,3.2,0.2,12-4.6,10.7
		c-3.6,6.4-14.4,9.6-20.3,14.1c-0.5-0.4-0.9-0.8-1.2-1.1c-3.3,7.5-13,12.3-19.4,17.2c-7.4,5.7-13.8,11.9-20.2,18.7
		c-0.2-0.1-0.4-0.3-0.5-0.4c0.5-1.8,6.5-24.4,6.3-24.7c-6.1,4-5.3,24-11.6,23.8c0,8.1-7.5,11.8-8.4,19.1
		c-6.1,8.6-10.3,18.6-15.2,27.9c-3.2-10.4-8.9-37,2-43.2c-2.4-0.4-4.2,0.1-5.8,2.4c-5.3-24.5-7.2-51,11.2-68.5
		c-1-0.2-1.7-0.3-2.9-0.5c3.3-7.2,3.7-15.4,7.1-22.5c-0.3-0.2-0.7-0.5-1.1-0.8c1.8-6.7,15.7-11.9,13.4-16.7
		c-3.8,2.5-7.4,5.3-12.1,5.8c-1.6-9.2-1-20.5-0.5-29.9c-4.8,4,3.9,28.5-1.3,30.6c-1.2-0.1-2.1-0.6-2.7-1.7
		c-3.8,2.9-7.5,5.7-11.3,8.6c-0.6-2-0.8-7-3.7-7.6c-1.9,2.9,1.3,7.8-0.7,10.2c-9-12-9.7-24.5-2.4-36.2c4-6.4,8.1-12.9,13.1-18.6
		c4.2-4.8,12.2-9.7,11.8-16.9c-2.1,1.4-3.7,2.5-5.7,3.8c0.5-1.4,0.9-2.4,1.3-3.7c-12.1,5.4-20.4,27-28.3,36.7
		c-1.8-5.7-6.8-23.3-0.8-27.2c-0.6-1.5-1.2-2.9-2-5c3.2-10.8,2.1-22.4,2.5-33.7c0.3-8.3,1.4-16.7,2.4-25c0.3-2.6,5.9-19.5,5-20.8
		c-0.8,0-1.7,0.1-3,0.2c-0.6-4.5-1.4-8.9-0.1-13.6c-3.1,1.5-2.6,3.9-2.5,6.3c-0.6,0.1-1.2,0.2-2.1,0.3c1,5.6,2.6,9.4-0.4,14.4
		c1.3,2.6,1.3,2.6-0.2,5.7c-0.6-0.1-1.1-0.3-1.6-0.4c-1.5,7.5,0.3,17.8-0.9,26c-1.6,11.2,0,25.7-4.4,36.1c-1.1-2.6-5.7-19-8.5-17.7
		c-3.1,8.1,2.5,15.3,3.5,23.9c-1.9-1.3-1.6-3.2-2.3-4.7c-1.3,0.1-2.3-0.4-3.1-1.5c0.4,1.5,0.7,2.5,0.9,3.3c3.6,0.5,7.7,12,6,15.2
		c-0.4-0.2-0.9-0.5-1.3-0.7c1.4,13.5,11,38.5-2.2,49.4c-0.9-5.4,1.1-9.4,2-14.7c-1.2,2.8-2.1,5.1-3.3,7.8
		c-4.4-13.5-6.2-28-10.1-41.6c-3.4-11.8-7.6-27.8-0.5-39.4c-1-0.1-2-0.2-2.9-0.2c-0.3,0.9-0.6,1.6-1,2.8c-2.6-3.8-3.1-7.7-4.3-11.5
		c-0.8,6.7,3.1,13.1,3.3,19.8c0.2,5.9-1.1,11.7-0.4,17.6c1.4,13.2,6.8,24.8,8.7,37.9c1.7,11.1,7.4,25.4,1,34
		c-10.1,13.6-19.5,26.4-23.5,43.2c-3.6,0.7-3.2-2.2-4-4.3c-0.8,1.1-1.3,1.8-1.6,2.3c-4.6-3.4-13.2-8.8-13.9-15.1
		c-0.6-5.8,6.2-14.5,8.5-19.8c-5.9-0.5-9.3,6.1-12,10.7c-2.8-2.7,1-6.8-3.2-8.8c-3.5,3.1-3.4,15.5-2.2,19.5
		c1.9,6.4,7.8,10.6,12.4,14.7c4.2,3.8,10.9,8.7,11.2,14.6c0.2,5-7.8,16.3-10,21.1c-3.6,8.1-3.5,12.4-4,21c-0.4,8.6-0.6,9-9.5,8.5
		c-9.2-0.6-13.9-2.1-15.1-10.7c-1-7.1-0.6-22.6,1.3-29.3c-4.4-16.3-2.1-28.7,0.3-44.8c-1.8,5.1-2.3,10.6-4.9,15.5
		c-3.3-6.6-3.8-16.2-5.5-23.3c-1.2-5.3,1-12.8-0.5-17.2c-0.8,1.4-1.4,2.5-2.1,3.8c-1.3-2.8,0.4-4.8,0.9-6.7
		c-8.7-4.9-6.3-28.5-8.3-37.8c-4.4,0.7-1.1,16.9-0.8,20.1c-5.4-4.9-6-19.5-7.8-26.6c-1.8-7.4-2.6-18.6-7.3-24.7
		C1.1,453.7,5,472.9,10.5,487.2L10.5,487.2z M585.8,685.1c-1.8-1-3.7-0.1-5.5-1.6c2.2-4.9,3.4-12.6,6.9-16.4c0.8,0.8,1.5,1.4,2.2,2
		c0.1-0.1,0.2-0.2,0.3-0.4c-1-1.2-2-2.4-3.1-3.8c1.9-2.4,4-5,6-7.6c-1.1-3.8,2.9-4.9,4.9-7.6c-1.5-0.1-2.5-0.2-4-0.4
		c6.7-7.8,21.3-15.4,25.7-24.2c-2.7,1.8-5.3,3.7-7.8,5.7c3.9-6.1,7.8-11.4,10.8-17.5c-0.8,0.6-1.7,1.2-2.6,1.9
		c-0.4-0.8-0.8-1.5-1.1-2.1c-7.4,10.7-12,24.9-25.2,31.3c-1.6-4.2-1.4-12.4-6.9-12.8c14.1,13.9-6.6,36.8-14.6,48.4
		c-3.4,4.8-19.3,34.2-25.5,33.3c-0.7,3.9-9.3,16.6-14,16.3c-4.3,5-21.8,26.6-27.1,25.6c-0.1-0.5-0.2-0.9-0.2-1.2
		c-1,0.3-1.8,0.6-2.5,0.9c-0.1,2.6-1.5,4-4.1,4.2c0.5,4.2-6.3,7.6-9.7,8.4c-0.4,4.1-10.3,7.3-12.9,10.5c8.7,0,28.8-5.3,28.8-16
		c16.5-14.5,33.3-29.2,48.2-45.2c5-5.4,11.1-10.4,16.1-16C574.9,694.2,575.6,685.1,585.8,685.1z M614.5,755.4
		c-13.8-12.4-6.1-46.4-4.9-61.9c1.3-16.5-0.1-34.4,6.4-49.6c-1.7-2.9-3.1-6.1-4-9.6c-2.9,5.9,1.9,11.1-4.5,15.1
		c1.4,4.5,0.5,8.7-1.9,12.8c2.1,8.2,1.7,30.1-1.7,37.1c-4.6-0.7-1.4,10.9-1.4,14.6c0,7.6-1.1,15.3-0.3,22.9
		c1.5,13.6,7.8,27.5,10.5,41.2c2.5,0,4.8,0,7.5,0c-1.6-10.1-1.6-26,6.3-32.3c2.9-2.3,11.8-1.2,4.3-5.2c-2-1.1-4.8,1.2-6.9,0.5
		c-2.7-0.9-4.1-4.5-6.9-5.6c-2.4,1.8,3.4,6.1,4.1,8C616.5,747.7,615.7,749,614.5,755.4z M894,679.8c-9.2,8.4-9.9,31.6-12.9,43.1
		c-3.1,12-8.5,24.3-13.3,36c-0.5-3.6-3.7-6.8-1.1-10.5c-2.3-4.6,3.8-19-0.4-22.3c-0.5,5,1.5,16.8-2.2,20.7
		c-1.7-8.4-3.3-16.9-4.9-25.3c-3.6,7.1,9.4,30,2.2,34.1c-0.5-0.4-1-0.7-1.5-1.1c1.2,4.5,6.8,13.2,5.5,18c-1.2-0.4-2.1-0.7-3.1-1
		c-0.1,0.2-0.3,0.4-0.4,0.5c1.3,1.9,4.2,3.1,3.5,5.9c2.8,0,5.4,0,8.3,0c-1.7-12.6-3.7-19.6,1.5-31.8c2.8-6.6,16-28.5,13.5-35
		c-0.6,0.4-1.2,0.8-2,1.4c1.6-9.5,2.1-23.5,9-30.7C895,681.1,894.6,680.5,894,679.8z M246.1,778.1c0.6-3.7,2.3-6.4,5.5-8.1
		c-0.6,0.1-1.1,0.2-2,0.4c1-2.1-1.2-1.5-1.8-2.3c0.7-4.4,2.5-15.6,6-18.6c-0.4-0.4-0.7-0.8-1.2-1.3c2.4-3,5.8-5.5,5.7-10.2
		c-1.8,1.9-1.1,5.4-4.6,6c-0.8-2.7,1.1-4,2.7-5.8c-3.7-0.3,0.6-8,1.2-9.6c-2.3-1.2-0.1-3.5-1.1-5.5c-2.5,7.1-2.8,25.2-9.9,29.7
		c0.9,2.3,0.3,4-1.8,5c-0.2,3.4,0.6,6.6-1.5,9.7c-0.8-1-1.3-1.6-2.2-2.6c1.1,6.5-3.8,7.8-5.5,13.5c3.7-1.8,4.2-5.8,7.3-8.7
		c0.5,3.3-0.9,5.9-0.5,8.6C243.6,778.1,244.6,778.1,246.1,778.1z M848.3,773.8c1.7-9.6,13.4-31.1,4.8-39.7c1.2-1.7,2.2-3.3,3.3-4.9
		c-6,0.3-8,7.1-3.3,9.4c0.4,2.9,2.3,8.4-1.5,10.3c2.7,6.2-6.8,23.5-9.6,29C846.4,779,844.7,773.9,848.3,773.8z M824,778.1
		c0.5-2.4,4.5-10.8,3.1-13c-0.8,0.3-1.5,0.5-2.4,0.8c-1.6-3.7-3.1-7.3-4.7-10.9c-0.2,0.1-0.4,0.1-0.6,0.2c0,8,2.1,14.6,1.1,22.9
		C821.8,778.1,822.8,778.1,824,778.1z M204.4,778c4.7,1.2,16.6-6.3,19-10.4C221.3,766.3,205.5,775.3,204.4,778z M1026.2,763.6
		c-2.3,5.2-6.5,9-7.8,14.3c3.1,1.4,7.8-10.4,10.2-12.1C1027.6,765,1027,764.4,1026.2,763.6z M742.5,778.1c0.4-2.9,0.8-5.5,1.2-8.5
		c-0.6,0.4-1,0.6-1.5,0.9c-0.8-1-1.6-2-2.4-3.1c-0.3,3.1-0.2,7.3,0.3,10.5C741,778.3,741.7,778.3,742.5,778.1z M1113.8,593.8
		c-4.1,0.7-4.1,0.7-4.2,3C1111,595.9,1112.4,594.9,1113.8,593.8z M177.4,665.3c0.3-0.1,0.5-0.1,0.8-0.2c-0.8-1.9-1.5-3.7-2.5-6.1
		C174.8,662.1,177.6,663.1,177.4,665.3z M42,527.7c-0.2-0.2-0.5-0.4-0.7-0.6c-0.8,2.1-3.7,2.8-3.6,5.6C39.1,531,40.5,529.3,42,527.7
		z M317.6,589.4c0.2,0,0.5,0.1,0.7,0.1c-0.3-1.7,1.5-3.2-0.1-5.3C318,586.2,317.8,587.8,317.6,589.4z M308.9,621.3
		c0.8,2.6,1.2,3,4.1,4.4C311.8,624.4,310.6,623.1,308.9,621.3z M51.9,757.2c-1.6-1.1-2.4-1.2-4.4-1C48.8,757,50.1,758,51.9,757.2z
		 M1108.2,605c1.6-2.8,1.6-2.8,0-3.6C1108.2,602.6,1108.2,603.7,1108.2,605z M333.6,597.8c0.2,0.1,0.5,0.2,0.7,0.2
		c0.5-1.6,0.9-3.2,1.4-4.7c-0.2-0.1-0.4-0.1-0.6-0.2C334.7,594.7,334.1,596.2,333.6,597.8z M210.2,608.9c-0.2,0-0.5,0-0.7,0
		c0.2,1.6,0.3,3.3,0.5,4.9c0.1,0,0.1,0,0.2,0C210.2,612.2,210.2,610.5,210.2,608.9z M202.3,638.7c-0.7,2.9-0.7,2.9,0.5,4.8
		C202.6,641.6,202.5,640.1,202.3,638.7z M316.4,602.7c-0.3-1.4-0.6-2.3-0.8-3.3C315.2,601.5,315.2,601.5,316.4,602.7z M203,645.9
		c-0.1,0-0.2,0-0.3,0.1c0.2,1.1,0.4,2.2,0.7,3.3c0.2,0,0.4-0.1,0.5-0.1C203.6,648.1,203.3,647,203,645.9z M259.5,777.7
		c0.7-1,1.2-2,0.4-2.8c-0.2,0-0.5,0.1-0.7,0.1C259.3,775.9,259.4,776.8,259.5,777.7z M299.3,595.5c1.2-1.5,0.4-2.4,0-3.2
		C299.3,593.1,299.3,594,299.3,595.5z M364.7,629.1c-0.2-0.1-0.3-0.2-0.5-0.4c-0.5,0.7-0.9,1.5-1.4,2.2c0.1,0.1,0.3,0.2,0.4,0.2
		C363.7,630.4,364.2,629.8,364.7,629.1z M865.7,722.4c1.2-1.1,1.3-1.7,0.2-3C865.8,720.6,865.8,721.3,865.7,722.4z M261.2,730.7
		c-0.2-0.1-0.5-0.2-0.7-0.3c-0.3,0.8-0.6,1.6-0.9,2.4c0.1,0.1,0.3,0.1,0.4,0.2C260.4,732.2,260.8,731.5,261.2,730.7z M619.5,624.1
		c0.2,0.2,0.3,0.3,0.5,0.5c0.5-0.6,0.9-1.2,1.4-1.8c-0.1-0.1-0.2-0.2-0.4-0.3C620.6,623,620.1,623.5,619.5,624.1z M220.4,620.4
		c-0.2-0.1-0.5-0.1-0.7-0.2c-0.1,0.8-0.1,1.5-0.2,2.3c0.1,0,0.2,0,0.4,0C220,621.8,220.2,621.1,220.4,620.4z M631.1,575.4
		c1.5-0.1,2.5-0.1,3.4-0.2C633.6,575,632.7,573.7,631.1,575.4z M448.7,481.7c-0.2,0-0.4,0.1-0.5,0.1c0.2,0.6,0.3,1.1,0.5,1.7
		c0.1,0,0.3-0.1,0.4-0.1C449,482.9,448.8,482.3,448.7,481.7z M287.6,500.3c-0.2,0-0.3,0-0.5,0c0,0.7,0.1,1.4,0.1,2.2
		c0.1,0,0.3,0,0.4,0C287.7,501.8,287.7,501.1,287.6,500.3z M260.4,632.7c-0.1,0.2-0.3,0.4-0.4,0.6c0.4,0.3,0.9,0.5,1.3,0.8
		c0.1-0.1,0.2-0.2,0.2-0.4C261.1,633.4,260.7,633,260.4,632.7z"/>
	<path d="M1167.4,524.9c-34.1-1-68.9,13.3-92,38.5c0.1,0.2,0.2,0.4,0.3,0.6c3.6-0.6,12.2-6.3,14.9-5.2c-0.4,0.8-0.8,1.6-1.1,2.4
		c0.5,0.4,0.9,0.8,1.5,1.3c-5.8,4.8-14.2,2.6-20.2,6.3c-6.6,4.2-7.1,10.2-7.8,17.2c-1.5,13.4-3.7,41.2,4,52.5
		c-3.6,7.3,3.7,27.8,6.7,35.4c4.1-5.5-2.6-18.7-2.9-25c4.6,1.1,4,12,5.1,15.5c1.4-4.2,1.5-8.7,3.9-12.5c5.5,10.2-4.3,22.8,1.1,34.3
		c0.4-0.5,0.7-0.8,1.3-1.5c0,6.5,2.1,11.7,6.9,16c3.4-5.5,3.4-15.4,4.8-21.8c1.2-5.9,1.1-12.3,1.9-18.2c1-7.9,1.7-15.9,3-23.8
		c0.7-4.6,1.7-22.3,6.2-24.7c-0.7,4.3-3,10.6-2.1,14.9c-2.4,4.6-6,15.9,0.3,18.8c0.6-0.8,0.8-1.7,0.6-2.6c0.8,0.6,1.4,1,2.2,1.6
		c-3.1,2.7-1.3,10.9-1.5,14.9c0.8-0.2,1.4-0.3,2.4-0.6c-1.7,4-7.7,23.6-3.4,26.8c-3.3,2.3-1.7,6.6-4.2,9.5c0.9,0.3,1.4,0.5,2.2,0.7
		c-5.8,2.7-7.6,28.3-8.2,34.4c-0.8,7.3-3,14.9-3,22.2c0,8.7,4,16.7,5.6,25.1c-6.7,0-13.3,0-19.9,0c0.5-6.5,2-13.8,1.1-20.3
		c-2.7,2.4-10.4,21.8-14.3,20.2c0.7-3.3,1.4-6.5,2.1-9.9c3.9-1.3,3.1-6.1,6-8.3c0.3,0.2,0.7,0.5,1.2,0.9c12.2-12,4.6-39.4,1.2-53.5
		c-2.5-10.3-7.7-19.7-10.4-30c-2.6-9.9-1.8-21.9-5.7-31.3c-7.6-1.7-21.7,8.5-28.6,11.1c0.1,0.2,0.1,0.4,0.2,0.6
		c4.1-0.2,8.3-0.4,12.4-0.7l-0.1-0.1c-4,2.9-11.9,1.6-16.8,2.8c-7.8,2-14.8,6.7-22.6,8.8c-10.8,2.9-35.5-1.5-36.2,14.2
		c-0.4,10.8,10.1,24.3,12.6,34.9c3.4,14.1,4,33.4,14.1,44.1c1.7-2.3,2.3-4.6,2.2-6.6c4-2,6.6-8.7,9.6-12.2c4.3-5,9.3-10.5,14.1-15.1
		c3.6-3.5,9.5-6.1,10.9-11.1c1.8-6.2-5-12.8-1.8-19.1c3,4.9,2.5,25,8.7,27c3.9-1.3,8.4-2.7,13.2-4.3c-0.6-2.9-1.2-5.8-1.9-9.4
		c4.7,4.5,5,18.5,6.2,24.8c1.5,7.7,1.8,15.8,3.6,23.4c2.9,0.2,6.6-6.2,9.8-7.4c0,4.6-7.5,8.2-8.6,12.9c-1,4.3,0.8,9.2,0.3,13.7
		c-1.2,0.3-2.7,0.5-3.9-1.2c-1.6,1.9-3.7,1.2-5.6,1.3c-2.6-3.3-6.3-6-4.9-10.5c1.2,0.7,5.9,8.4,6.1,8.7
		c6.6-11.5-21.1-31.8-16.7-43.8c-9.2,1-20.4,12.4-25.3,19.4c-2.7,3.8-8.7,10.4-8.3,15.6c0.3,4.7,5.9,6.4,7.9,9.9
		c-3.7,2.3-6.5-4.2-8.7-6.1c-1.8,2-2.3,4.6-3.5,6.7c-6.6,0-13.2,0-19.6,0c-5.6-7.2-6.2-27.9-7.9-37c-2-10.7-3.6-27-10.2-36
		c-3.7,2-5.5,17.7-7.2,21.9c-4.3,10.1-11.2,18.9-14.5,29.7c-5.5,7-10.9,12.8-10.1,21.4c-5.1,0-10,0-15.1,0c-0.8-2.4,0.9-5.5-2.5-7.4
		c1.1-0.3,1.7-0.4,2.5-0.6c0.6,2.5,1.1,4.8,1.7,7.4c10.6-3.6,0.2-14.2,1-18.9c1.3,0.8,2.5,1.7,4,2.6c0.6,2.6,1.2,5.4,2,8.9
		c3.5-8,2.2-13.8-2-21.2c-3.4-6-14.4-16-14.6-23.1c8.4,8.2,14.2,18.2,21.3,27.5c4.7-10.1,0-29.8-0.5-40.8
		c-0.3-7.3,1.9-18.5-1.3-25.1c0.6-4.2-1.3-7.5-2.4-11.6c1.1,0.3,1.6,0.4,2.3,0.5c2.3-2.7,2.3-2.2,4.2,1c0.8-0.5,1.5-0.9,2.3-1.4
		c-2.9,4.9-0.4,13.1,0,18.2c0.6,7.9,0,15.8-0.1,23.8c-0.1,13.5,1.3,26.9,0.8,40.6c5.9-8.4,10.1-18.9,14.9-27.6
		c4.1-7.4,11.5-22.3,11-31.3c-0.3-5.6-7.9-20.8-13-24.9c-5.9-4.7-18.8-2.4-25.8-2.1c-12.1,0.5-24.5,0.3-36.5,1.7
		c-13.1,1.5-20.2,6.9-29.8,15.7c-7.5,6.9-12.5,16.7-19.8,23.8c-6.6,6.4-18.7,9.5-20.2,19.2c-0.4,0.1-0.9,0.1-1.3,0.2
		c-0.6,3.3-1.6,6.4-0.9,9.7c-2.8,3.5-2.1,7.6-0.5,12c1.2-0.6,2.1-1,3.5-1.7c-3.4,8.7-4.7,14.7-5.1,24.1c0.2,0.1,0.5,0.1,0.7,0.2
		c0.5-1,1-1.9,1.6-2.9c0.1,0,0.3,0,0.4,0c-0.1,1-0.2,2.1-0.3,3.3c-6.5,0-12.8,0-19,0c-2.2-7.3-4.4-10.9-8.3-13.4
		c-1.6,4.3-3.2,8.6-4.9,13.2c-1.5,0.5-6.8,0.7-11.2,0.1c2.1-11.4-12.5-26.4-17-37.3c-3.1-7.6-5.4-15.1-6.5-23.2
		c-1-7.3,1.3-18.1-4.8-23.4c-12.3,10.9-18.5,26.9-20.7,42.2c-1.1,8-3.1,13.6-1,21.6c1.7,6.6,5.7,13.6,7.9,20.3c-1.1,0-2.5,0-4.1,0
		c-2.4-6.8-4.9-13.7-7.3-20.5c-0.3,0-0.5,0.1-0.8,0.1c-0.8,6.8-1.3,13.6-1.6,20.4c-2.4,0-5,0-7.8,0c-1.3-9.7-0.6-21.4,0.7-31
		c1.1-8.7,5.1-15.4,7.7-24.3c-5.4-6.7-11.4-14.1-9.5-23.5c1.8-9.1,4.8-6.4,1.4-13.4c-1.9-3.9-6.6-6.5-8.9-9.9
		c-4.6-6.8-4-14.8-3.4-23c3.7,2.7,7.6-6.5,9.4-2c-5.4,3.1-6.5,9.8-5.8,15.4c5-5.1,11.6-10.2,15.2-16.3c3.8,0.5,18.4-14.8,21-18.4
		c8.3-11.3,3.4-15.1-1.5-27c-7.3-17.9-10.9-36.8-16.1-55.4c2.8-6.7-2.6-23.8-4.7-31.6c1.5-1.6,0.5-16.7,0.6-18.5
		c2.7,3,2.2,15.3,2.8,19.6c0.7,4.5,0.4,10.6,2.8,14.6c1.3-2.5,0.5-5.3,1.1-7.8c0.2,0,0.4,0,0.7,0c0.7,6.3-2.6,20,2.4,24.5
		c-4.2,14.1,8.8,41.3,13.5,54.6c0.6-0.9,0.9-1.4,1.4-2.2c1.6,4.4,1,7.7,3.7,12c1.8-11.2,3.5-23.4,4.2-34.8
		c0.5-9.5-2.8-23.3,4.3-31.1c-0.6,6.4-3.5,12.6-1.6,19.3c6.6-22.1,2.6-53.7,23-69.7c1.5,2.4-8.8,16.9-9.9,19.7
		c-3.1,7.7-8.7,20.6-7.6,29c4.5-7.9,7-17.4,10.8-25.7c2.9-6.1,9-13.6,9.4-20.3c8.5-7.9,11.3-19.5,15.4-29.9c2-5.1,4.5-10.1,6.2-15.2
		c1.3-3.9,1.2-13.9,4.1-16.6c0,1.2,0,2.4,0,3.6c0.7,0.2,1.2,0.3,1.7,0.5c0,12.5-9.6,27.1-13.7,38.6c-3.9,11.1-10.5,21.2-16.2,31.6
		c-7.8,14.3-13.1,30-17.2,45.5c-3.1,12-13.1,35.3-8.2,47.3c1.4-0.9,1.4-0.9,1.5-6.4c0.4,0.9,0.8,1.8,1.2,2.7
		c0.3-0.1,0.6-0.3,0.9-0.4c0.3-1,0.6-1.9,1-3c0.2,0.2,0.4,0.4,0.7,0.8c7.1-8.1,10.4-18.2,14.9-27.7c2.2-4.6,4.4-8.1,5.7-13
		c1.2-4.7-0.8-14.3,2.9-17.6c-2,20.3-7.5,36.2-18.6,53.7c-5.9,9.3-10.4,14.9-10.2,26.1c0.2,7.8-1.7,18.5,2.4,25.5
		c5.8-10.5,24.9-19.5,26.4-30.9l-0.1,0.1c0.5,0.9,1,1.8,1.6,2.9c13-7.6,28.4-16.5,40.3-25.8c9.5-7.4,28.1-18.5,30.5-31.6
		c6,5.4,21.6-47.4,22.8-47.8c3.8,10.4-8.6,29.8-12.7,38.8c-6.2,13.6-21.5,22.5-27.5,35.8c-4,8.8-1.9,20.8-5,30.2
		c-4.5,13.3-17.9,31.8-15,46.4c2.9-4.5,3.7-9.5,7.3-13.1c-3.8,17.5-18.4,39.3-6.9,56.7c5.9-11.8,3-24.4,5.8-36.2
		c0.6,2.7,1.1,5.3,1.7,8c0.2,0,0.4,0,0.6,0c0.2-1.8,0.7-3.4,1.4-5c0.1,0,0.2,0,0.3,0c0.8-2,2.8-11.6,6.1-10.9
		c-2,11.4-8.3,21.7-8.3,33.8c0.9-0.5,1.6-1,2.9-1.7c-2,6.6-3,12.1-3.4,19c8.1-5.2,13.4-13.6,20.3-20.2c7-6.7,14.4-13.1,21.5-19.6
		c14.9-13.6,32.4-23.6,47.7-36.6c-4-2.7-6.1-4.3-9.6-8.1c1.2-1,2.1-1.9,3-2.6c1.6,0.9,6.2,6.6,8.4,8.3c8.8-6.5,7.3-19.1,4.8-28.7
		c-2.6-10.1-13.1-14.8-21.5-20.6c3.5-1.1,5.2,1.9,7.9,2c0.1-0.5,0.1-1,0.2-1.5c4.9-3,10.1,3.9,13.2,6.6c1.3-9.6,3.9-19,5-28.6
		c1-8.9,0.5-16.4,5.2-24.3c0,6.5-2.6,13.2-3.8,19.5c0.2,0.1,0.4,0.1,0.6,0.2c13.1-30.4,2.6-53.5-16.1-77.6
		c-9.4-12.1-15.2-25-27.7-34.4c-7.2-5.4-16.1-8.8-22.3-15.4c-5.1-5.3-10.6-12.8-14.9-18.8c2-1.1,3.7-1,5.2,0.5
		c1.3-0.9,2.5-1.7,4.1-2.7c3.3,21.4,22.9,26.1,37.4,38.6c13.3,11.6,19.7,28.8,31.9,41.4c3.5-4.8,2.9-17.8,4.1-23.7
		c0.9-4,2.5-8.3,3.3-12.4c2.3-12.5-8.2-25.9-8.9-38.4c-0.8-14.2,4.1-29.4,1-43.8c-0.9-4.3-15-37.6-17.4-37.3
		c0.5-5.8-6.1-10.7-5-16.1c12.6,12,13.9,32.9,24.3,47.1c1.9-5-0.3-21.3-3.4-26.3c1.7-4,1.8-8.2,1.5-12.5c8.5,0,7.3,51.6,7.3,57.8
		c7.8-2.6,13.7-31.8,23.7-29c-1.4,1.5-2.6,2.8-4,4.3c2,0.9,3.1-1.3,5.3-1.3c-8.4,7.1-29.3,29.3-24.3,41.4c-0.6,0.2-1.1,0.4-1.8,0.7
		c0,15.5-0.4,25.5,7.6,39.3c7.6-4.7,12.5-4,14.7-12.8c2.2-8.9,1.8-17.6,2.9-26.6c3.1,8.5-1.1,25-2.6,33.8
		c10.5-1.5,11.9-4.3,22.8-0.4c-0.1,0.6-0.2,1.2-0.4,2.2c-29.2-9.9-26.5,22.5-31,42.2c-1,4.4-1.4,8.7-1.3,13.2
		c0.1,6.7-1.3,10.9-2.1,17.2c-1.3,10.4,8.3,18.9,14.6,26.8c4.5-6.5,6.9-71.9,7.5-71.9c2.3,3.8,1,8.4,2.7,12.3
		c2.1-0.3,10.5-17.7,11.8-20c2.7-4.7,4.1-11.4,8.5-15.2c-0.4,2.9-0.7,5.2-1.1,7.7c10.3-3.6,13.9-21,15.9-30c0.3,0.9,0.5,1.8,0.8,2.6
		c0.1,0,0.2,0,0.4,0c0-0.9,0-1.7,0-3c0.6,0.4,0.9,0.6,1.5,0.9c6.7-5.8,14.1-26.4,15.2-34.9c0.9-6.4-7.1-37.3-2.4-38.2
		c2.6,11.3,5.5,22.5,6.2,34.6c4.2-2.9,6.9-5.2,8.8-9.5c2.1-4.8-0.9-13.2,1.8-16.7c1,2.3-0.4,5.1,1.5,7.1c5.9-1.4,8.4-11.2,7.6-16.1
		c-0.7-4.5-5.1-6.1-3.7-11.8c1.1-4.6,6.1-7.7,8.3-11.8c0.6,0.9,1.1,1.7,1.8,2.7c-3.5,5.8-10.6,15.9-0.9,19.7
		c3.8,9.6-9.2,18.4-13.1,24.4c-1,1.5,0.1,4.3-0.8,5.8c-1.9,3.1-4.6,5.5-6.6,8.4c-4.3,6.2-7.5,13.3-10.9,20
		c-7.2,14.3-12.5,29.5-21.9,42.7c-4.5,6.3-10.9,11.4-15.1,17.9c-3.6,5.6-4.9,11.7-8.5,17.4c1.9-0.3,3.3-0.5,5.3-0.8
		c-7.9,5.6-8.8,17-10.3,26.3c-1,5.8,0.6,12-0.1,17.8c-0.6,5.5-4,11.7-2.8,17.3c5.6-2.4,10-7.4,15.8-9.6c5.8-2.2,11.3-1.9,17.3-3.4
		c12.4-3.2,11.4,0.1-0.2,3.2c-10.6,2.8-21.5,3.7-28.3,13.7c-6.9,10.1-3.8,22.9-5.6,34.3c9.2-1.9,19.3-13.1,27.1-18.6
		c10.2-7.1,20.7-14,31.1-20.7c10.8-7,23.6-12,33.9-19.6c9.8-7.3,1.5-14.9,6.9-24.6c4.6-8.3,15.1-8.7,22.2-13.8
		c6.8-4.9,11-14.9,15.9-22.1c11-16.2,32.8-31.9,38.7-50.2c7,3.1,18.3-20.2,21.5-24.9c0.9,7.1-3.3,11.2-7.1,16.9
		c2.2,0.6,3.9-1.9,5.9-0.4c-3.6,6.7-13.7,13.5-18.7,19.5c-5.5,6.7-11.2,12.6-17.4,18.5c-8.9,8.6-27.5,26.9-29,39.4
		c3.1,1.7,8.7-10.3,10.7-11.6c1.2,2-2.6,8.7-3.1,9.7c18,0.8,30.6-13.8,47.8-17.7c9.6-2.1,14.9-2.2,18.8-12.1
		c4.5-11.6,5.2-24.7,12.8-34.9c0,2.8,0,5.6,0,8.4c-2.4,8.7-9.6,23.8-8.8,32.7c3-0.2,5.9,0.1,8.8,0.9c0,1,0,2,0,3
		c-5.3,0.6-8,4.8-12.7,6.7c-7.6,2.9-14.8,0.5-22.2,4.1c-14.4,7.1-30.3,15.9-43.4,25.2c-9.3,6.6-27.5,16.1-32.2,26.8
		c-4,9.4,1,33.3,4.5,42.2c10.5-4.4,13.6-9.8,21.9-17.7c8.2-7.8,17.3-11.8,27-17.3c5.6,1.7,10-7.2,11.4-11.3c0.2,0,0.4,0.1,0.6,0.1
		c0,0.7,0,1.4,0,2.5c5.4-5.7,10.6-11.1,15.7-16.5c3.3-0.8,6.1-4.4,9.2-4.8c-9.5,9.9-19.4,18-28,28.9c14.5-2.7,33.6-9.7,48.2-6.5
		C1167.4,522.9,1167.4,523.9,1167.4,524.9z M1096,694.8c4.6,1,6-29.8,6-32c-0.8,1.8-9.8,21.2-4.8,21.2
		C1097.2,684.4,1093.4,694.7,1096,694.8c-2.5,5.1-3.4,9.6-4.3,15.4C1095.4,708.5,1096.5,698.3,1096,694.8z M717.7,678.8
		c1.3-1.4,1.4-1.2,2.4-3.1c0.3,2.8-1.6,5.4,0.3,8.1c-4,7.5-3,16.7-3.6,25c6-3.9,10.7-13.8,15.2-19.5c-2.7-2.9-4.9-8.6-6.2-12.3
		c0.2-0.1,0.4-0.2,0.6-0.3c2.1,3.4,5.5,10.4,9.6,8.7c6.2-2.5,1-9.7-0.8-12.5c1.4,0.3,2.3,1.5,3.9,1c0-5.6,1.6-14.8-1.1-19.7
		c-6.4,9.7-20.7,12.6-25,24.7c-1.8,5.1-1.1,11.1-2.5,16.4c-1.6,6.4-4.8,12.7,2.1,18c6.5-5.8,0-27.1,2.9-35c0.2,0,0.5,0,0.7,0
		c0.4,2.3,0.8,4.5,1.2,6.8C718.8,682.9,718.7,680.9,717.7,678.8L717.7,678.8z M1053.8,572c-17.6,7.6-52.7,16.5-59.1,35.7
		c-3.3,9.9-7.8,18.4-12.4,27.3c-2,4-10.1,16.8-8.5,21.7c0.7-0.1,1.3-0.2,2-0.4c0.3,0.9-5.9,11.4-6.4,13.1
		c12.5,1.1,23.3-4.2,35.3-6.7c15.2-3.3,31.6-9.3,45.3-16.8c11.2-6.2,5.8-16.1,4.3-27.4C1052.6,605.8,1059.6,583.2,1053.8,572z
		 M1048.6,527.3c-23.4,10.3-43.5,24.8-65,38.4c-9.9,6.3-19.9,12.8-27.4,21.7c-6.9,8.2-4.8,17.5-1.7,28c16-1.3,18.2-26.8,33.1-32.4
		c3.9,2,8.8-5.1,11.5-7.5c2.9,4.5-10.1,20.4-12.8,24.7c11.1,0.7,14.5-12,17.4-19.9c-0.6,5.2-4.3,9.1-4.5,14.3
		c17.6-10.6,35.4-19.5,54.5-27.3C1051.5,553.9,1049.8,540.7,1048.6,527.3z M779,681.6c2.6-11.1-1.7-9.7-6-17.9
		c-6.2-11.8,2.7-26.9-2-39.3c-12.6,7.4-17.6,20.1-28.5,28.3c0.7,7.6,6.6,16.4,5.4,23.4c-0.8,4.6-12.4,19.9-2.2,23
		c0.4-0.5,0.9-1,1.8-2c-0.3,1.5-0.5,2.2-0.7,3.2c12.2,11.5,21.7,25.1,32,38.3c0.6-10.8-1.3-23.2-4.2-33.6c7.2,1-3.4-10.9-3.7-11.1
		c0.1-0.2,0.3-0.3,0.4-0.5c1.3,0.8,2.7,1.6,4.3,2.6c0.5-2.4,0.6-10.3,2.7-12c-0.4-1.5-0.7-2.7-1-3.9c0.1,0,0.2-0.1,0.3-0.1
		C778,680.3,778.4,680.8,779,681.6z M791.6,682.5c4.3-4.2,4.8-8.1,7.6-12.2c0.4,0.7,0.8,1.5,1.2,2.3c2.4-3,2-8.8,2.4-12.4
		c0.9-7.9,4-15.7,6.9-23c4-9.8,19.4-37.7,12.2-48.2c-12.6,8.3-28.3,16.5-39.4,26.5c-4,1.1-7.5,5.2-10.5,7.8
		c2.7,14-4.9,33.1,7.4,43.2c1.2-3.7-3.4-5.1-2.5-7.8c0.9,0.4,1.7,0.7,2.8,1.1c0-6.8,1.8-12.8,2.2-19.3c0.3-5.5-2.3-12,0-17.3
		c0.2,4.5,0.4,8.5,0.6,12.4c0.7-0.4,1.2-0.6,1.6-0.8c-0.4,2.6-4.1,15.7-2.9,17.3c0.7-0.3,1.5-0.7,2.5-1.2
		C778.5,663.6,785.5,672.2,791.6,682.5z M924.6,528.8c-2.1,5.9-1,13.4-2.6,19.7c-1.9,7.9-5,15.3-6.8,23.3c-1.3,6.1-4.3,13.8-3.8,20
		c0.8,10,8.3,12.6,17.3,16.7c11.6-11.7,10.2-18.7,10.6-34.4C939.9,555.7,935.2,543.3,924.6,528.8z M766.8,767.6
		c7.3-11.4,12-21.4,4.7-33.8c-6.2-10.5-17.3-26.1-28.5-31.6C740.1,724.8,754,750.3,766.8,767.6z M935.3,667.5
		c-5.2-5.4-27-29.7-33.3-18.3c2.4,0,4.4,0,6.3,0c-2.6,2.9-12.2,4.5-16.3,6.6c-7.9,4.2-16,9.7-22.2,16.2c8.1-0.8,17.8,0.4,25.6-1.4
		c10.5-2.4,7.4-14.8,15.7-18.4c4.3,4.3-8,12.9-5.4,17.8C910.5,670.2,932.2,671.9,935.3,667.5z M994.6,601.3
		c-10.6,5.4-21.3,11.2-26.9,21.6c-5.9,10.9-7.6,25.1-4.5,36.9c0.8-1.1,1.3-1.7,1.7-2.3c0.2,0.5,0.3,1.1,0.5,1.9
		c5.3-1.6,10.4-5.7,7.8-13.1c3.6-1.3,9.1-15.5,11.5-19.6C988.8,620,995.5,609.3,994.6,601.3z M736.4,623.5c-0.2-0.1-0.5-0.1-0.7-0.2
		c-8.1,12.1-17,20.6-27.4,31c-3.2,3.2-11.9,7.9-12.5,12.7c-0.6,5,4.8,9,8.1,12.8c5.4-6.7,11.4-13.7,17.4-20
		c4.5-4.8,9.1-12.8,15.5-13.9C737.1,638.4,737.5,630.9,736.4,623.5z M947.9,662.3c0-5.5-0.5-10.1-1.6-15.5c-1.5-1.7-2.7-3.7-3.3-5.9
		c1.6-1,2.8-2.4,3.7-4.2c-2.3-8.6-1.4-7.7-10.3-5.2c-7,2-13.7,4.6-20.4,7.4c4.1,12,15.3,18.3,24.9,26.1
		C943,664.3,945.5,663.3,947.9,662.3z M792,686.6c-5.1,4.2-11.9,14.3-9.7,20.8c-1.9,2,4.2,23.4,5.5,26.5c9.9-8.5,12.6-19.5,7.4-32.4
		C797.6,699.6,793.9,688.3,792,686.6z M1049.8,725.2c-4.4,2.1-9,3.2-13.5,5.6c4.3,12.3,9.3,23.4,15.6,34.8c0.6-2.1,0.9-3.5,1.4-5.3
		c0.5,1.1,0.7,1.7,1.2,2.7C1057,750.9,1052.5,737,1049.8,725.2z M926,508.8c4.5-7.1,0.9-19.4,1.1-27.2c0.2-12.2,2.5-24.6,2.3-36.9
		c-3.5,3.1-1.6,9.7-2.3,13.8c-1.1,5.9-3.9,11.5-5.2,17.4C919.2,488.8,921.3,496.8,926,508.8z M929,480.7c7.4-5.9,7.5-30.3,9-40
		c-10,3-8.4,10.1-8.4,19.8C929.7,467.2,929.7,473.6,929,480.7z M1068.7,491.7c-0.2-0.1-0.3-0.3-0.5-0.4c-10.4,4.7-14.9,10.6-13,22.1
		C1060.2,507.4,1065.9,499,1068.7,491.7z M911.5,606.9c1.9,5.6,0.1,11,1.7,16.9c3.3-4,7.4-6.2,9.7-10.4
		C919.3,611.2,915.5,608.2,911.5,606.9z M936.1,621.1c-8.6-4-14.1,1.5-18.1,10.2C921.4,631.4,933.1,624.8,936.1,621.1z
		 M1075.6,499.4c5.5-3.6,14.8-8.1,18.3-14.1c-6.2-0.4-16,2-15.4,10.1C1077,495.8,1075.4,496.4,1075.6,499.4z M781.7,694.5
		c0.2,0.1,0.4,0.2,0.7,0.3c1.8-1.9,11.5-12.2,4.2-13c-0.5-2.2-1.4-4.2-4-5.4c-0.5,3.5-2,6.6,0.1,10
		C780.5,688.8,781.3,691.7,781.7,694.5z M1100,646c-1.9,7.8-2.5,15.7-3.2,23.7c0.2,0,0.4,0.1,0.6,0.1
		C1099.7,664.9,1108.1,650.4,1100,646z M798.6,683.8c0.1-0.1,0.2-0.2,0.4-0.4c0.4,0.3,0.8,0.6,1.5,1.1c0.2-2.8,1.2-5.1,0.7-8.1
		c-7.3,7.4-7,9.7-2.8,19.6C799.6,690.7,800.5,688.9,798.6,683.8z M799.8,704c-0.1,0-0.2,0.1-0.4,0.1c0.3,6.2,0.7,12.4,1,18.6
		c2.5-1.1,2.7-1.5,2.3-5.2c0.4,0.1,0.9,0.3,1.4,0.5C806,713.4,802.2,707.6,799.8,704z M792.2,770.5c2.5-5.7,0.2-15.6-4.2-19.6
		C785.9,756.1,790.6,765.2,792.2,770.5z M1084.7,697.3c-0.2,0.1-0.4,0.2-0.6,0.2c-0.3,3.6,1.1,10.2,2.8,12.2
		C1088.9,704.1,1087.5,702.4,1084.7,697.3z M1030.6,722.4c-6.4,6.1-6.4,6.1-6.2,8.2c2.6-1.2,5-2.4,7.7-3.7
		C1031.6,725.2,1031.1,723.9,1030.6,722.4z M942.2,666.7c2.6,3.6,2.7,3.7,6.1,2.7c0.3-1.6,0.6-3.2-0.7-4.9
		C945.9,665.3,944.2,666,942.2,666.7z M782.8,720.9c-0.3,0-0.6,0-0.9,0c0.2,1.7-0.3,12.9,3.4,11.3
		C785.7,728.2,784.4,724.5,782.8,720.9z M965.3,669.3c3.7-0.2,1.8-3.9,1-5.9c0.3-0.2,0.6-0.4,0.8-0.6c0.3,0.7,0.6,1.4,0.9,2.2
		c0.2-0.1,0.5-0.2,0.7-0.3c0.3-1,0.6-2.1,0.9-3.3c-1.8,0.4-3.3,0.8-4.8,1.2c-0.1,1.5-0.8,2.9-0.3,4.5c0.5-0.2,0.8-0.3,1.3-0.4
		C965.6,667.6,965.4,668.4,965.3,669.3z M801.4,751.2c-0.2,0-0.3,0.1-0.5,0.1c-0.3,4.4-1.6,8.9,1,12.6c0.2-0.1,0.4-0.2,0.6-0.3
		C802.6,759.9,803,754.7,801.4,751.2z M796.7,750.3c-0.6,3.3-1.9,6.7-0.1,10C797.7,757,798.2,753.6,796.7,750.3z M936.8,611.1
		c3.6,3.6,5.4-1.6,4.1-4.5C939.5,608.1,938.2,609.6,936.8,611.1z M1090.8,713.3c-2.1,2.8-2.8,4.9-0.3,7.6
		C1090.4,718.2,1092.4,716.3,1090.8,713.3z M991,667.5c2.9-0.7,6.2,0.3,8.5-2.4C996.5,665.3,993.6,665.7,991,667.5z M1008.6,664.1
		c0-0.1-0.1-0.3-0.1-0.4c-3.4-1-5.6,0-6.7,2.8C1004.1,665.6,1006.4,664.8,1008.6,664.1z M1086.4,723.5c-0.5,2.1-0.4,4.1,1.5,6.1
		C1088.3,727.1,1087,725.4,1086.4,723.5z M792.3,750c0.2,0,0.5,0.1,0.7,0.1c0.3-1.9,0.6-3.9,0.9-6.2
		C791.6,745.4,791.4,746.8,792.3,750z M740.7,694c-0.1-1.7-0.2-2.9-0.3-4.4C737.7,691.9,737.7,692.1,740.7,694z M799.7,770.4
		c1.5-2.2,1.5-3.2,0-5.5C799.7,766.8,799.7,768.5,799.7,770.4z M990.5,765.5c1.9-1.7,1.8-2.1-1.4-3.9
		C989.6,763.1,990,764.2,990.5,765.5z M1119.9,473.2c3-0.3,4.2-0.9,5.7-2.7C1123.4,471.5,1121.6,472.4,1119.9,473.2z M964.9,676.6
		c0.5-1.5,0.8-2.6,1.2-4C963.5,673.6,963.5,673.6,964.9,676.6z M1092.3,546.6c-0.1-0.2-0.2-0.3-0.4-0.5c-0.7,0.5-1.5,1.1-2.2,1.6
		c0.1,0.2,0.2,0.3,0.4,0.5C1090.9,547.6,1091.6,547.1,1092.3,546.6z M735.3,650.2c-0.1-0.2-0.2-0.4-0.4-0.6
		c-0.6,0.4-1.2,0.7-1.8,1.1c0.1,0.2,0.2,0.3,0.3,0.5C734.1,650.9,734.7,650.5,735.3,650.2z M803.6,743c-0.1,0-0.3-0.1-0.4-0.1
		c-0.1,0.4-0.2,0.8-0.4,1.2c0.2,0,0.5,0.1,0.7,0.1C803.5,743.8,803.5,743.4,803.6,743z"/>
	<path fill="#FFFFFF" d="M1167.4,521.9c-14.7-3.1-33.8,3.8-48.2,6.5c8.5-10.9,18.5-19,28-28.9c-3.1,0.4-5.9,4.1-9.2,4.8
		c-5.1,5.4-10.2,10.8-15.7,16.5c0-1.1,0-1.8,0-2.5c-0.2,0-0.4-0.1-0.6-0.1c-1.4,4.3-5.7,13-11.4,11.3c-9.6,5.5-18.9,9.5-27,17.3
		c-8.2,7.8-11.4,13.3-21.9,17.7c-3.7-9.5-7.8-30.9-4.5-40.9c3.8-11.4,22.6-21.4,32.2-28.1c13-9.1,27.8-16.1,41.6-23.8
		c8.1-4.5,12.4-2.9,21.5-5.2c5.8-1.4,9.4-6.4,15.2-7.1C1167.4,480.3,1167.4,501.1,1167.4,521.9z"/>
	<path d="M1167.4,729.5c-7.8,10.7-15.5,21.4-22.9,32.4c-6.8,10.2-8.4,16.3-21.2,16.3c-2.2-6.2,19-30.5,22.5-35.4
		c8-11.5,13-26,21.7-36.7C1167.4,713.9,1167.4,721.7,1167.4,729.5z"/>
	<path fill="#FFFFFF" d="M1167.4,456.5c-2.9-0.7-5.8-1-8.8-0.9c-0.8-8.9,6.4-24,8.8-32.7C1167.4,434.1,1167.4,445.3,1167.4,456.5z"
		/>
	<path d="M1167.4,388.1c-2.7-10.6-3.9-20.2-5-31c3.4,0.2,4.1,21.1,5,24.4C1167.4,383.7,1167.4,385.9,1167.4,388.1z"/>
	<path d="M348.6,644.4c0.4,0.7-4.3,4.9-4.7,5.7c-2.3-3.3-12.8,3-12.2,6.3c14.4,7.7,29.9,9.9,45.8,13.3c10,2.1,31.8,10.4,41.7,7.7
		c11.6-3.2,2.4-41.6,10.3-53c0.7,0.3,1.6,0.7,2.4,1.1c4.7-0.9,13.2-38,14.1-43.8c1.5-10.2-3.2-12.7-7.3-22.3
		c-2.4-5.6-3.4-12-5.3-17.8c-4.8-14.7-10.7-28.9-15-43.7c-2.1-7.3-4.4-15.4-5.2-23c-0.8-8.2,2-14.1,3.7-22.4
		c7,0.5,10.6-10.5,12.8-16c2.1-5.3,3.4-9.9,3.1-15.8c-0.1-2.6-2.3-4-1.2-6.9c1.1,1.4,2,2.5,2.9,3.7c6.2-2.6,7.2-14.2,9.4-19.8
		c3.9-10.1,6-12.4-6-14c-2.4-0.3-4.7,2.4-7.4,1.3c-4.3-1.8-5.4-6.9-8.4-10.2c-5-5.4-15.4-13.2-21.6-17.1
		c-13.7-8.4-33.8-8.1-45.7-19.6c-12.3-11.8-22.8-30.1-32.3-44.5c12.7-0.2,15.8,21.3,25.2,26c0.4-0.9,0.7-1.7,1.1-2.6
		c4.5,2.7,5.1,11.5,9,15.4c3.2,3.2,7,4.9,11.1,6.7c10.5,4.5,21.5,7.7,32,12.1c0.8-0.5,1.6-1,2.1-1.3c12.3,10.5,27.6,31.9,46.1,28
		c7.7-1.6,16.3-16.2,21.5-22.1c5.6-6.3,11.6-12.9,14.3-21c3.2-9.5,0-19.7-0.2-29.5c-0.2-9.7,1.7-18.2,3.5-27.8
		c2.4-12.8,2-19-3.2-30.8c-4.1-9.4-10-16.9-9.3-27.3c6.4,5.3,17.3,35.1,25.2,34.6c-1.2,5.7-13.8,57.4-4.5,57.8
		c-1.6,7.8,2.1,14.4,0.7,22.2c2.4-0.1,2.6,1.5,2.9,3.5c6.7-0.9,12.8,0.7,18.7,3.3c-1.3,4.5-18.8,1.1-23.6,3.9
		c-5.6,3.3-22,23.4-22.5,30c6.2,1.9,12.2,2.3,18.7,2.3c11.2-0.1,15.2-1.9,22.9-10c5.3-5.6,10.6-11.7,16.5-16.7
		c3-2.6,14.5-8.2,15-12.6c0.1,0.6,0.2,1.2,0.4,2.2c3.4-0.6,6-2.5,8.8-4.2c1.6,1.7,3.5-0.8,5.4-0.3c1.1,0.9,2.2,1.7,3.6,2.9
		c-12.4,4.2-24.1,9.1-33.7,18.2c-4.6,4.3-18.7,16.4-17.3,22.9c1.5,0.1,2.4,0.9,2.7,2.3c-1,2-19,1.6-21.6,1.6
		c-6.3,0.1-19.2-4.3-25.2-2.2c-4.1,1.4-16.5,35.2-13.8,36.3c-5.3,2.8-7.2,15.9-9.4,21.2c-3.1,7.8-7.2,15.5-10,23.4
		c-5.4,15.1-0.2,36.4,7.8,50.3c3.5-8.3,0.9-18.5,5.3-27c0,12.5-5.2,24.6-2.1,37.2c1.9,7.8,10.4,30.1,20.6,28.5
		c0.1,0.9,0.2,1.7,0.4,2.8c0.9-1,1.7-2,2.5-3c-0.4,7.4,0.9,11.9,8.3,14.5c3.1-8.3,6.6-16.2,7.7-24.9c0.2,0,0.4,0,0.6,0
		c1,3.3-1.2,6.8-0.6,10.4c-2.1,3-6.2,10.2-5.4,14c0.7,3.7,4.9,3.2,5.8,7.2c-1.7,0.7-4.4-1.2-5.3,1.9c0.6,0.4,1.2,0.9,1.8,1.3
		c-1.2,1.6-1.2,1.6-4.9,2c-0.5,12.5-1.7,24.1,0.5,36.5c3.4,0,2.8,1.9,2.9,4.6c-1.4,1.5-1.4,1.5-0.5,3.4c0.6-1.1,1.1-2,1.7-2.8
		c0.7,0.2,1.3,0.3,2.2,0.6c0.2-0.4,0.3-0.8,0.4-0.9c4,0.3,20.4,1.3,22.7-2.1c-1-6.9-5.4-13-7.5-19.6c-2.3-6.9-1.1-17.6-5.1-23.5
		c0.2-0.1,0.3-0.3,0.5-0.4c0.7,0.4,1.4,0.8,2.2,1.3c0.4-0.3,1-0.6,1.7-1.1c0.4,5.3-0.2,29.5,8.2,30.3c2.3-4.7-2.4-13.8,1.3-17.6
		c2.2,6.6,2.3,13.3,1.8,20.9c2.5-2.7,4.5-4.9,6.6-7.2c-0.7-0.9-1.2-1.5-2-2.4c1,0.3,1.7,0.5,2.5,0.8c4.3-4,7.2-8.6,7.4-14.7
		c5.9-0.6,3.8-12.7,7.2-16.8c1.5,6.4-1.1,13.8-2.4,20c6-3,7.3-19.5,10.8-20.3c0.6,4-0.6,7.8-1.5,12.3c2.4-1.6,4.7-2.1,4.7-5.1
		c7.8,1.7,23-21.7,23.8-28.9c0.9-0.5,1.9-1.1,2.9-1.7c2.5,2.6-1.6,4.7,1.6,6.6c-10.3,11.8-18.9,23.4-31.6,32.8
		c-11.2,8.2-21.8,20.9-27,33.9c0.2,0.2,0.4,0.3,0.5,0.5c3.1-2.6,6.2-5.3,9.3-7.9c-0.3,2.8-3,3.4-4.3,5.2c10.1,1.1,24.2-8.5,33.7-12
		c6.7-2.5,16.5-4.8,21-9.9c0.7,0.6,1.4,1.2,2.1,1.9c-1.4,1.2-2.6,2.3-4.2,3.7c15.3,0,23.5-12.9,31.1-24.8
		c11.7-18.2,9.2-32.9,2.9-52.2c-5-15.3-5.8-31.2-9-46.9c-1.9-9.4-13.1-33.7-9.1-41.7c6.2,2.1,9.2,24.6,10.6,30.7
		c3,12.9,4.4,26.2,7.2,39.1c2.4-1.2,3.1-5.9,6.1-6.2c-5.1,9.2-5.2,11.7-1.8,22c3.2,9.6,6.6,18.8,8.9,28.7c7.6-15,18.8-27.7,25.9-43
		c7.4-15.7,20-37.7,16.1-55.6c-2.4-11.1-7.6-21.1-9.3-32.6c-1.3-8.6-3.1-17.4-5.5-25.7c-4-13.5-6.9-40.8-22.5-45.9
		c-3.5-7-6.2-15-10-21.6c2.7-3.2,7,5.7,8,6.7c3.1,3,10.5,4,12.6,7.2c5.7-5.6-1.5-33.1-3.2-40c-2.6-10.4-6.5-18.9-11.1-28.4
		c3.6-3.2,6.9,6.3,11.2,6c3.9-9.9,1.1-23.4,3.4-34.2c2.7-13.1,6.7-27.7,7.4-41c0.6-10.8-2.6-22.5-7.9-32c-7-12.5-21-20.7-26.7-34.2
		c0.7,0.3,1.5,0.7,2.4,1.1c3.3-1.1,3-0.7,6.9,1.1c-0.4-2.6-5-21.8-2.6-23.4c4-2.7,5,8.4,5.4,10.2c3.5,19.4,7,26.4,20.5,41.2
		c5.5-5.3,4.4-17.5,5.2-24.6c0.8-6.4,2.3-12.9,3.2-19.3c2.2-15.1,0.1-30.8,0.3-46c0.1-4.5,1.6-41.2,2.9-41.7c4.9-2,4.3,8.6,7.7,8.5
		c6.7-0.3,2.3-11.5,12.4-8.6c-0.6,8.1-5.3,18.3-9,25.6c0.6,0.4,1.2,0.7,1.8,1.1c-8,8.5-4,30-3.9,40.2c0.3,17.2-2.3,34.9-3.7,52.3
		c-0.3,0-0.8,0.1-1.6,0.1c-1.2,11.1-5.2,26.3-2.7,36.4c3.5-6,6.4-12.3,12.7-16.8c-3.9,7.1-6.4,14.9-10.5,21.9
		c1.4-0.5,2.2-0.8,3.1-1.1c1.8,5.7-3.3,11.5-4.9,16.8c-2,6.1-2.5,12.6-3.3,18.9c-1.9,16.1-7.2,34.6-2.7,50.7
		c-5.8,3.3,0.5,33.2,1.1,39.7c1.3,14.1,2.7,28.4,5.1,42.4c2.2,12.4,6.5,26.5,10,38.8c2.2,7.7,7.5,15.9,6.2,24.3
		c0.8-0.5,1.2-0.7,1.5-0.9c1.5,5.4,2.1,17.6,8.5,19.5c3.4-2.8,10.6-6,12.6-10c4.3,0.3,4.6-1.1,6.1-5c1,1.8,1.6,2.9,2.3,4.1
		c2.5,0.7,4-0.8,5.2-3c1,0.9,1.9,1.6,2.8,2.4c7-4,13.9-7,21-10.6c6,1,21-5.2,20.1,5.2c-5.9-2.7-38.7,4.5-30.7,11.9
		c-6.9,0.2-15.5-1-21.3,2.9c-2.8,1.9-8.3,13.8-12.6,11.2c-4,4.8-1,7.7-1.8,12.7c-1.2,7.2-5.7,15.9-8.6,22.6
		c-5.3,12.3-11,24.9-17.4,36.7c-11.3,20.7-24.5,40.3-36.4,60.8c2.3,0.3,3.1-1.7,4.6-2.3c0.1,0.1,0.1,0.2,0.2,0.2
		c-24,32.8-52.8,63.4-81.2,92c-11.5,11.6-23.7,23.8-35.8,34.3c-5.7,5-12.5,9.7-18.1,15.8c-7.5,8.1-12.9,21.9-21.1,28.5
		c0.3,7.8-14.7,20.3-18.4,27.3c-22.8,0-45.3,0-68.1,0c-0.3-1.6-0.6-3.1-0.9-4.7c3.6-3.4,11-1.9,14.3-5.2c3.2-3.2,2.3-10.7,1.8-15.2
		c-1.6-12.8-6.8-22.6-9.4-35.1c1.3-0.5,1.9,1.1,3.3,1.6c0-0.8,0-1.4,0-2.2c9.4-5.1,20.1,18.6,25.6,23c1.4-1.7,1.4-1.7-0.2-4
		c0.4-0.3,0.8-0.6,1.4-1c-0.2-0.8-0.4-1.7-0.7-3c1.2,1,2.1,1.8,3,2.6c2.4-1.9,2.4-1.9,0.1-5.3c12.5-3.1,6.9-23.2,0.7-29.8
		c-6.7-7.1-18.6-7.2-27.2-10c-12.2-4.1-26-4.7-38.6-7.7c-13.6-3.2-26.4-10.8-39.6-15.2c-7.7,12.3-13.4,30.6-18.1,44.4
		c-3.2,9.6-6.8,20-8.6,29.9c0.5,0,0.9,0.1,1.7,0.1c-4.6,3.3-4.5,14.8-5.5,19.8c-1.3,6.2-3,11.3-5.9,16.8c-3.7,0-8,0-12.8,0
		c10.5-8.7,12.4-18.1,15-31.3c2.8-14.2,7.1-28.2,11.6-41.9c8.4-2.4,2.3-11.2,4.3-14.6c0.8,0.9,1.5,1.8,2.2,2.6
		c2.5-1.8,2.4-2.2-0.1-6.5c-0.6,0.6-1.1,1.2-1.7,1.8c2.1-7.8,2.8-15.6,3.2-23.4c0.3,0,0.5,0.1,0.8,0.1c-0.2,4.4-4.1,20.6,1.2,22.8
		c5.7-9,6.4-23.6,7.1-33.8c6.9-0.6,7.5-20.1,5-24.5l-0.1,0.1c0.7,0.4,1.5,0.8,2.7,1.6c-0.9-4.6-1.7-8.6-2.6-12.6
		c2.1,3.6,2.5,7.8,3.7,11.9c4.6-1.9,2.7-13,1.3-16.8c-0.2,0.4-0.4,0.9-0.7,1.6c-0.7-3.3-1.3-6.3-2-9.3c0.1-0.1,0.2-0.1,0.4-0.2
		c0.7,1.4,1.4,2.9,2.1,4.3c0.2-0.1,0.4-0.1,0.6-0.2c-0.1-1.2-0.2-2.4-0.3-3.5c2.6,4.5,0.9,9.7,2.6,14.6c5.4-3.3,5.9-17.5,10.9-21.4
		c-0.6,2.4-1.1,4.9-1.7,7.3c0.1,0,0.1,0.1,0.2,0.1c7.1-11.9,9-22.3,9.8-35.7c2.8,5.2,0,10.7,1.3,16c-2.5,2.5-2.7,6.4-4.7,9.9
		c1,0,1.5,0,2.4,0c-1.6,1.6-3.6,2.6-3.1,5c-12,17.6-16.6,36.6-23.2,56.6c11.9,0.5,21.2-13.7,32.8-16.2c-1.8,1.6-3.6,3.2-5.5,5
		C344.2,647.5,344.2,647.5,348.6,644.4L348.6,644.4z M456.6,718.7c11.8-12.2,31.6-27.6,35.4-44.4c2.6-11.8,1.8-17-2.7-28.1
		c-1.5-3.8-5.5-12.9-9.4-15c-11,10.5-19.7,21.6-28.7,33.8c3.7,0.5,0.5,15.9,0.6,18.3C452.6,694.6,453.7,707.2,456.6,718.7z
		 M581.7,600.1c-9.4-1.9-25.3,4.8-33.9,7.9c-9.6,3.5-24.1,7.2-31,14.6c-6.9,7.4-4.4,19.9-7.2,29.3c-2.4,8.2-9.9,16.1-10.4,24.8
		c6.7-4.8,7.4-7.4,8.8-15.1c0.7,1.6,1.1,2.4,1.6,3.5c5.6-2.2,9.6-4,12.3-9.4c0.2,0.7,0.4,1.2,0.6,1.7
		C544.3,641.3,564.1,620.5,581.7,600.1z M462.3,615.7c0.2-0.1,0.4-0.2,0.7-0.3c3.1,6.5,3.8,18,11.2,9.2c-4.9-6.9-9.3-13.8-13.6-21.2
		c-9.2,13.1-11.6,37.1-9.4,52.2c6.2-7.9,10.9-17.2,17.1-24.7C466.3,625.5,464.3,620.6,462.3,615.7z M475.4,616.8
		c0.2-0.1,0.4-0.3,0.7-0.4c-1.4-8.8-2.4-15.9-1.4-24.6c1.3-11.1,3.8-15.5-7.3-19.9c-3.1,6.2-5.9,22.2-3.9,28.7
		C465.1,606.1,471.5,612.6,475.4,616.8z M484.1,627.2c3.8,4.4,8.2,15.1,12.7,17.9c4.2-6.9,6.3-15.7,9.4-23.2
		C500.3,622.5,487.3,620.7,484.1,627.2z M440.3,552.4c-0.6,3.5,0.7,6.5,3.4,9.5C443.4,558.1,442.5,555,440.3,552.4z M633.9,340.7
		c0.2-0.1,0.4-0.1,0.6-0.2c-0.1-0.9-0.2-1.8-0.3-3.5c-0.9,1.1-1.4,1.7-1.9,2.3C632.9,339.8,633.4,340.3,633.9,340.7z M506.5,642
		c-1.1,1.3-1.9,2.1-1.1,3.4C507,644.8,507,643.8,506.5,642z"/>
	<path d="M203.8,756.5c-4.9,6.3-5.4,13.9-6.9,21.7c-10.8,0-7.1-19.8-8.9-28.2c-6.6,7-9,18.7-10.3,27.8c-1.7,0.5-13.1,0.7-16.7,0.1
		c-1.4-15.6-1.6-24.6-11.4-37.1c-8.1-10.3-15.2-21.3-23.1-31.9c-8.5,2.7-14.8,7.6-18.6,15.7c-1.4,2.9-6.5,7.5-0.8,8.7
		c-6.7,7.4-22.1,24-7.2,33.1c-1.6,3.7-0.8,7.8-1.4,11.7c-4.6,0-8.9,0-13.5,0c-1.3-4.8-0.1-10.6-1.2-15.7c4-2.9,2.6-24.8,0-28.5
		c-2.6-3.8-10.2-6.3-13.9-9.7c-4.3-3.9-8.4-8.4-11.3-13.3c0.7-0.4,1.1-0.7,1.6-1c-1.2-2.6-3.6,1-5.9,0.5c1.8-1,3.5-1.6,3.3-3.7
		c-4.2-2.6-1.2-5.6-3.2-9.1c-2.3-3.9-4.2-5.9-8.1-8.7c0.1-0.4,0.3-1.2,0.6-2.2c1.4,1.2,2.5,2.1,4,3.4c0.1-1.3,0.2-2.1,0.3-2.9
		c0.1,0,0.3-0.1,0.4-0.1c1.2,2.6,2.5,5.2,3.7,7.8c0.2,0,0.3-0.1,0.5-0.1c-0.4-5.3-2.3-11.9,1.6-16.4c0.5,5.2,2,29.9,9,29.1
		c-0.9,3.1-0.9,3.1,1.6,4.2c0.7-0.6,1.5-1.1,2.2-1.7c0.1,0.1,0.2,0.2,0.4,0.3c-3.7,5.5,3.4,18.7,10.6,14.9c-0.4,3,0.2,3.8,3.2,3.9
		c0.3-3.2-0.3-3.9-3.3-3.8c5.3-11.1-12.7-20.5-12.6-32.3c6,3.7,9,9.8,12.5,15.5c0.2-0.1,0.5-0.3,0.7-0.4c-1-3.5-2.6-18.8-7.3-19.5
		c-2.8-15.4-25.4-30.3-36.8-39.8c-0.8,13.6,7.1,26.5,6.9,40c-0.3,13.4-7.6,29.4-3.6,42.7c-1.7,7-1.5,14.5-0.4,22.3
		c1.5,0.3,2.9,0.7,4.4,1c-0.4,2.9-2.8,2-4.5,2.2c-2.7,4.6,0.9,15.8,1.5,21c-3.9,0.2-7.7,0.1-11.5,0c-1.3-3.6-2.9-6.8-6.3-8.4
		c-2.8,0.6-0.1,3.7-2.5,4.6c-4-2.8-2.3-14.2-7.7-15.5c0.1-0.6,0.3-1.2,0.4-2.1c-1,0.3-1.8,0.6-2.7,0.9c0.1,0.5,0.2,1.1,0.3,1.8
		c0.8-0.3,1.4-0.5,2-0.7c-2.2,10.4,0.8,19.4-12.3,19.4c2.2-1.9,3.4-4.2,3.5-7.1c-0.2-0.1-0.4-0.3-0.6-0.4c-0.9,0.6-1.8,1.2-2.8,1.8
		c-7.2-3.6,4.4-16.9,5.5-19.3c2.6-6.1-1.6-18.8-5.8-23.3c-0.3-11.1-0.4-22.2-0.4-33.3c0.2-0.1,0.4-0.1,0.6-0.2
		c0.9,1.7,1.7,3.4,2.7,5.3c5.3-4.9,4.3-14.7,10.9-18.4c1.9,3.6-3.5,8.6-3.4,12.7c7.9-1.4,7.5-26.9,8.2-31.9c0.6-4.5-2-19,2.3-23
		c4.3,14,1,30.5-1,44.6c10.7-1.9,10.4-23.1,9-30.6c-0.9-5.2-0.5-11.4-2.1-16.4c-0.8-2.7-4.7-7-4-9.9c2.2-0.7,1.9,2.2,3.6,2.3
		c0.8-2.3,0.4-4.6,0.2-6.9c-9-2.7-17.9-5.4-26.9-8.1c0-2.7,0-5.1,0-7.8c8.3-0.7,18.3,5.3,26.5,7.1c5.3-10.6-1.4-18.3-2.5-27.8
		c-0.6-5.5,2.7-11.9,3-17.3c0.4-6.1-0.9-11.7-2.1-17.6c-2.4-12.3-5.5-59.2-23-61.2c1.4,4.9,2.4,9.9,2.3,14.9c-0.2,0-0.4,0.1-0.6,0.1
		c-1.4-7.5-4.2-15.3-3.5-23c2,1.6,3.7,2.9,5.5,4.3c0.2-1.4,0.8-2.2,2-2.4c1.2-0.1,0.2,2.2,1.8,1.8c-1.6,2.9-1.5,3.1,1.3,5
		c-0.3-1.7-0.7-3.3-1.3-5c-5.5-14.3-9.4-33.6-9.1-48.8c4.7,6.2,5.5,17.2,7.3,24.7c1.6,6.6,2.5,21.9,7.8,26.6
		c-0.3-3.1-4-19.4,0.8-20.1c2,9.2-0.4,32.9,8.3,37.8c-0.5,1.9-2.2,3.9-0.9,6.7c0.7-1.4,1.3-2.4,2.1-3.8c1.6,4.5-0.7,11.9,0.5,17.2
		c1.7,7.2,2.2,16.7,5.5,23.3c2.7-4.9,3.1-10.4,4.9-15.5c-2.5,16.1-4.8,28.5-0.3,44.8c-2.1,7.5-1.4,18.7-1.2,26.5
		c0.2,10.5,2.3,11.4,12.7,12.9c10.1,1.5,11.5,2.2,11.8-7.9c0.3-9.1,0.1-12.4,4-21c7-15.5,14.5-21.6,0.3-34.1
		c-4.8-4.2-10.6-8.1-12.8-14.6c-1.4-4.3-2.9-17.6,1.1-21.1c4.2,2,0.4,6.1,3.2,8.8c2.8-4.8,6-11.2,12-10.7c-2.5,5.8-9,13.7-8.5,19.8
		c0.5,6.2,9.4,11.8,13.9,15.1c0.3-0.4,0.8-1.2,1.6-2.3c0.8,2.1,0.4,5.1,4,4.3c3.7-15.5,11.9-29.1,21.8-41.4c6.3-7.8,6-7.3,3.5-16.4
		c-1.7-6.3-1.9-12.9-2.8-19.4c-1.8-12.2-6.5-23-8.2-35.3c-0.9-6.1-0.5-11.7-0.3-17.9c0.3-7.6-3.9-14.7-3.1-22
		c1.2,3.8,1.8,7.7,4.3,11.5c0.4-1.2,0.7-1.9,1-2.8c0.9,0.1,1.9,0.2,2.9,0.2c-7.2,11.7-2.9,27.6,0.5,39.4
		c3.8,13.5,5.7,28.1,10.1,41.6c1.1-2.7,2.1-5,3.3-7.8c-1,5.3-3,9.3-2,14.7c13.2-10.9,3.6-35.8,2.2-49.4c0.4,0.2,0.8,0.5,1.3,0.7
		c1.7-3.2-2.5-14.7-6-15.2c-0.2-0.8-0.5-1.9-0.9-3.3c0.7,1.1,1.8,1.6,3.1,1.5c0.7,1.5,0.3,3.4,2.3,4.7c-1-8.6-6.6-15.8-3.5-23.9
		c2.9-1.3,7.7,15.8,8.5,17.7c4.4-10.4,2.8-24.9,4.4-36.1c1.2-8.3-0.6-18.5,0.9-26c0.5,0.1,1.1,0.3,1.6,0.4c1.5-3.1,1.5-3.1,0.2-5.7
		c3-5.1,1.4-8.9,0.4-14.4c0.9-0.1,1.5-0.2,2.1-0.3c-0.1-2.3-0.6-4.8,2.5-6.3c-1.3,4.8-0.5,9.2,0.1,13.6c1.3-0.1,2.1-0.1,3-0.2
		c0.9,1.3-4.2,15.5-4.6,17.7c-1.4,9.2-2.4,18.8-2.8,28.1c-0.4,11.3,0.7,22.9-2.5,33.7c0.8,2.1,1.4,3.4,2,5c-6,3.9-1,21.5,0.8,27.2
		c7.9-9.8,16.2-31.3,28.3-36.7c-0.4,1.2-0.8,2.3-1.3,3.7c1.9-1.3,3.5-2.4,5.7-3.8c0.5,9.7-19.6,26.9-24.9,35.5
		c-7.3,11.7-6.5,24.3,2.4,36.2c2-2.4-1.2-7.3,0.7-10.2c2.9,0.6,3.1,5.6,3.7,7.6c3.8-2.9,7.5-5.7,11.3-8.6c0.6,1.1,1.5,1.6,2.7,1.7
		c5.2-2.1-3.5-26.6,1.3-30.6c-0.5,9.4-1.1,20.6,0.5,29.9c4.7-0.5,8.3-3.3,12.1-5.8c2.4,5-11.6,10-13.4,16.7c0.4,0.2,0.7,0.5,1.1,0.8
		c-3.3,7.1-3.8,15.2-7.1,22.5c1.2,0.2,1.9,0.3,2.9,0.5c-18.6,17.6-16.6,43.9-11.2,68.5c1.5-2.3,3.3-2.8,5.8-2.4
		c-10.9,6.2-5.1,32.9-2,43.2c4.9-9.3,9.1-19.3,15.2-27.9c0.9-7.4,8.4-10.8,8.4-19.1c6.3,0.2,5.5-19.8,11.6-23.8
		c0.2,0.3-5.8,22.9-6.3,24.7c0.2,0.1,0.4,0.3,0.5,0.4c6.5-6.8,12.8-13,20.2-18.7c6.4-4.9,16.2-9.8,19.4-17.2
		c0.3,0.3,0.7,0.7,1.2,1.1c5.9-4.5,16.7-7.7,20.3-14.1c4.8,1.3,4.1-7.6,4.6-10.7c1.9,0.9,0.1,2.5,1.3,3.6c0.8-2.5,1.5-4.9,2.3-7.2
		c0.2,0.1,0.4,0.1,0.6,0.2c-0.3,1.8-0.7,3.6-1.1,6c17.1-19.2,26.9-48,26.9-73.6c5.3-3.2,7.1-11.5,13.1-14.3
		c-1.3,4.9-7.8,8.7-10,13.6c-1.8,4-1.6,7-2.3,11c-1.6,8.6-5.3,18.5-4.3,27.3c-5.5,10.4-16.1,26.8-16.5,38c-0.2,0-0.4,0-0.6,0
		c-0.2-0.9-0.5-1.7-0.8-2.9c-3.8,2.7-4.4,6.9-6.2,10.3c-11.3,7.2-22.4,14.6-33,23c-5.4,4.3-34.9,22.5-32.7,29.6
		c-3.5,2.1-5.2,7.3-8.4,9.9c2,0.8,3.8,1.6,5.9,2.5c-1.4,1.4-3.1,2.3-5,2.7c-0.5-1.6-1.4-2-2.8-1.3c0.2,0.5,0.4,0.9,0.6,1.5
		c-9.3,1.7-17.9,33-18.2,39.8c-0.5,14.2,1.5,41.7,16.8,48.6c0.8,4.6,9.9,14.7,14.9,14.3c2-2.7-0.4-9.9,2.4-11.1
		c0.3-2.5-0.4-4.7-1.9-6.5c0.8-0.2,1.6-0.4,2.1-0.6c-5.3-9.2-6.9-18.4-7.2-28c0.9,7.7,3.6,14.9,6.2,22.2c0.2,0,0.4,0,0.6-0.1
		c1.1-8.8,1.2-13.3-2.5-21.2c1.6,0.7,2,2.8,3.7,1.8c1.9-7.1,1.9-15.7,2.9-23c0.3,0,0.6,0.1,0.9,0.1c-0.7,5-1.4,9.9-2.4,14.8
		c0.9-0.3,1.4-0.5,2.2-0.8c-2.5,10.8-3.5,22.7-1.6,34.3c0.2,0,0.4,0.1,0.6,0.1c4.6-5.8,21.3-31,18.8-37.4l0,0c1.7-0.1,1.1,2,2.5,2.4
		c12-11.3,7.4-24.4,2.7-38.1c1.4-2.5-1.1-5.2,0.1-8c1.5,6.9,1.9,21.3,6.9,26.4c0.3-0.8,0.5-1.4,0.9-2.5c0.1,1.3,0.2,2.1,0.3,3.5
		c2-2.9,6-7.7,6.2-11.3c0.2-4.6-2.7-4.3-3.5-8.3c1.3,0.8,2.3,1.4,3.3,2.1c0.1-0.9,0.2-1.6,0.3-2.3c0.6-0.1,1-0.2,1.5-0.3
		c-1.2-4.8-2.8-8,2-10.9c0.9,3.1,0.7,5.4,3.6,7c3-2.2,8.4-4,7.1-8.6c7.4-5.6,15.1-16.9,17.3-25.9c0.5,0.2,1,0.4,1.6,0.7
		c4.1-3.5,20.8-17,16.7-21.9c5.2,1.1,5.6-2.3,5-6.6c0.7,1,1.3,1.7,2.1,2.8c3.9-6.2,7.7-12.3,11.3-18.6c6.4-11.3-0.3-11.7-1.1-22.5
		l-0.1,0.1c1.4,3.2,3,9.1,7.1,10.1c10.2-14.4,19.7-36.7,23.2-53.5c0.7,0.2,1.4,0.4,2.1,0.7c6.3-13,14.9-22.8,14-37.2
		c0.8,1.7,1.7,3.4,2.7,5.4c2.1-4.8,5.5-8.8,5.4-14.4c0.4,0.5,0.7,1,1.2,1.6c0.9-1.2,1.8-2.3,2.8-3.4c0.1,0.1,0.3,0.1,0.4,0.2
		c-0.1,1.1-0.3,2.2-0.4,3.5c1,0.2,2,0.4,2.9,0.7c-1.1,5.3-9.9,16.7-12.6,22.3c-3.1,6.5-13.6,20.6-12.3,27.2
		c-6.9,6.5-9.6,19.3-13.8,27.8c-5.3,10.5-12.4,21.3-15.9,32.5c0.8,1,1.5,1.9,2.3,2.9c-6.6,7.1-12.1,14.3-17.7,22.2
		c-6.3,8.7-6.3,14.4-9,24.6c-2.1-2.8,0.3-11,0.7-14.2c-11.3-1.3-23.4,27.3-29.6,35.1c-10.4,13.2-16.2,29.6-20.2,45.8
		c6.4-2.4,42.8-12.8,39.5-23.4c7.5-2.7,16.5-17.6,21.6-23.9c4.9,1.8,19-9.9,15.6-14.9c1,0.3,1.5,0.4,2.2,0.6
		c10.8-15.4,17-34.3,23.8-51.9c4.9-12.8,14-31,26.2-38.6c2.9,2-10.8,17.4-12.5,20c-4.7,7.2-7.7,13.1-10.4,21.2
		c-2.8,8.6-7.3,16.8-10.4,25.3c-3.7,10.3-10.1,19.2-13.9,29.3c-2.2,1.6-3.7,4.1-4.1,7.5c-4.7,0.5-29.1,18.2-24,23.1
		c-0.3,0-0.6,0-0.9,0c-0.6-0.2-1.1-0.4-1.9-0.7c-7,7.9-12,15.9-21.7,21.3c-9.2,5.1-20.3,8.5-30,12.7c0,3.1,0,6.4,0,9.9
		c0.8,0.2,1.4,0.4,2.3,0.7c-4.8,3.5-4.6,15.7-4.9,21.1c0.9-0.2,1.6-0.3,2.6-0.5c-1.3,2.7-2.5,5-3.7,7.4c3.5,1.8-2.7,7.6-1.2,11.5
		c-2.3,1.2-2.8,3.6-3.5,6.2c3-0.1,4.9-1.8,7-2.9l0.2,0.2c-1.4,2.8-5.9,2.8-7.8,5c-2.5,2.9-4.1,8.4-5.4,11.9
		C208.3,739.3,201.6,756.5,203.8,756.5L203.8,756.5z M198.4,696.6c-0.6-0.7-1.3-1.3-2-2.2c-10.4,24.6-6.1,47.1-2.9,72.9
		c5.7-7.3,9.6-25.4,12.2-34.8c3.2-11.6-3.4-25.1-7.4-36c3.8-0.1,9.1,25.1,9.9,28.7c2.2-1.4,5.3-6.9,3.3-9.5
		c8.1-9.3,10.2-36.2,8.6-48.4c-3.2,1.7-6.8,1.4-8.4,4.9c-0.1-0.4-0.2-0.8-0.3-1.3c-6.7,6.3-8.9,15-14.1,22.2
		C197.7,694.3,198,695.5,198.4,696.6z M122.9,561.4c1,0.4,2.1,0.7,3.2,1.1c-0.3-1.1-0.5-2-0.8-3.5c0.7,0.5,1.4,1,2,1.6
		c0.2-0.1,0.4-0.2,0.6-0.3c-1.1-2.5-2.1-5-3.2-7.5c0.1-0.1,0.3-0.1,0.4-0.2c1.1,1.9,2.1,3.7,3.6,6.3c3.2-12.7-7.1-35.6-17.3-43.7
		c-7.5,8-8.4,20.5-3.2,31c1-0.3,1.9-0.6,2.8-0.9c0.4,11.6,1.3,20.1,5.4,32.2c5.1-3.9,5.5-4.2,5.1-10.2c0.1,0,0.3-0.1,0.4-0.1
		c0.4,1.3,0.7,2.7,1.1,4.3c2.2-2.1,3.5-4.2,3.7-6.9C125.5,563.5,124.2,562.4,122.9,561.4C123,561.3,122.9,561.4,122.9,561.4z
		 M105.3,616.1c-0.2-0.1-0.4-0.2-0.5-0.4c5.1-10.6,6.8-21.2,5.5-33c-1.2-11-5.5-17.8-9.1-27.9c0.2-0.1,0.5-0.2,0.7-0.3
		c0.6,1.2,1.3,2.5,1.9,3.8c0.6-0.3,1.2-0.6,1.8-0.9c-1.1-7.6-2.2-12.1-6.1-18.4c1.9-3.4,2-6.2,0.1-9.7c-5,12.6-13.5,22.8-13.5,37.2
		c0,10.5,3,1.5,0.4,7.9c-1.7,4.1-5.9,7.3-7.5,11.9c-6.2,18.7-6.9,41.5,12.2,54.9c3.1,5.2,8.6,9.8,13.5,13.2
		c3.3-12.6,0.4-27.1,2.5-38.9C106.4,615.7,105.9,615.9,105.3,616.1z M128,573.1c-6.2,4.7-14.3,24.5-12.1,33.4c0.7,0.3,1.3,0.6,2,1
		c-5.3,9.4-3.9,22.7-4.3,33.1c-0.2,5.2-3.7,14.8-2.3,19.5c1.7,5.7,9.7,11.8,13.4,16.6c15.3,19.8,25.6,42,43.3,59.7
		c9.9-7.8-4.8-18.6-10.4-25.2c-8-9.6-17.7-21.2-19.3-34.1c-1.4-11.1-2.3-22.4-3.9-33.4c-1.1-7.7-0.3-15.7-1.2-23.5
		c-1-8.3-5.6-19-4.2-27.4C126.3,586.3,131.1,579.6,128,573.1z M97.8,678.3c5.4-7.9-17.9-28.6-23.1-34.8c-9.5-11.2-24.3-16-38.4-17.9
		c-5.3,19.5,11.8,30.5,26.3,40.5c-0.3-1.3-0.6-2.2-0.8-3.1c10.5,0.5,12.2,22.8,20.9,25.1c-2.1,6.1,1,15,4.1,20.3
		c5.8-9.3,8.8-20.5,6.9-31.5c1-0.3,2-0.6,3.1-0.9C97.1,676.8,97.4,677.4,97.8,678.3z M112.8,713c7.7-1.4,11.1-5.8,9.9-11.9
		c-1-4.8-12-19.6-16.9-19.8c-2,2.4,0.9,9.9-1.7,10.7c-0.3-0.5-0.7-0.9-1.2-1.6c-4.7,10.9-15.7,30.7-6.9,41.5
		c3.8-2.6,4.1-7.5,7.7-10.6c-0.2-1.7-0.4-3.3-0.6-5c1-0.1,2.2-1.2,3.3,0.1c2-2.3,2.2-6.1,6.2-6.8C112.6,710.9,112.7,711.9,112.8,713
		z M33.1,671.2c-11.6,16.8-25,49.3-15.7,68.8c1-1.8,1.7-3.2,2.6-4.9c0.5,1.1,0.8,1.7,1.1,2.3c8.1-9.1,5.2-27,8.5-38.4
		c0.7,0.2,1.6,0.4,2.5,0.7c0,1.6-2.5,2-1.7,4.2C38.6,696.9,37.3,680,33.1,671.2z M137.2,542.3c10.7-11.5,15.2-28.8,18.1-43.8
		C135.7,502.2,135.7,526.1,137.2,542.3z M122.3,520.6c1.1,2.8,3.6,11.2,7,12c1.9-14.4-0.3-28.5-5.8-42
		C117.4,499.7,111,513.3,122.3,520.6z M29.1,755c6.2,0.7-0.9-10.9-1-11.2c0.8-0.1,1.6-0.1,2.3-0.2c1.1-5.5,0.4-7.7-2.6-8.8
		c-3.8,5.1-11.5,16.3-0.7,19.5c0.5-0.3,1-0.6,1.5-0.9C28.9,754.2,29,754.6,29.1,755z M10.5,719.8c0.2,0,0.5,0,0.7,0
		c1.4-4.1,5.4-15.5,3.5-20C5,707.5,6.7,708.3,10.5,719.8z M33.7,704.4c-2.8,4.4-10.2,27.3-2.3,28.4c0.2-1.3,0.3-2.4,0.5-3.5
		c-1.1-0.7-2-1.3-3-1.9c0.7-0.1,1.4-0.3,2-0.4c-0.4-1.6-0.8-2.9-1.2-4.3c0.2-0.1,0.4-0.2,0.6-0.2c0.4,0.6,0.9,1.2,1.3,1.9
		C31.3,718.6,36,709.9,33.7,704.4z M29.5,593.6c1.2-3.7,0.3-16.2-1.3-18.5C26.6,579.8,23.2,590.7,29.5,593.6z M103.4,524.2
		c-3.3,1.9-3,5.5-0.9,7.8C105,529.8,104,527.5,103.4,524.2z M222.9,651.2c-3.4,3.4-3.6,4.9-1.2,6.6
		C221.7,655.6,223.6,653.9,222.9,651.2z M219.4,661.3c0.9-1.6,0.6-2.6-0.8-3.8C218.1,659,218.1,660.1,219.4,661.3z M231.1,634.2
		c-0.1,0-0.3-0.1-0.4-0.1c-0.9,1.2-0.8,2,0.4,2.4C231.1,635.6,231.1,634.9,231.1,634.2z"/>
	<path d="M585.8,685.1c-10,0-10.1,7.8-16.1,14.8c-5.2,6-11.8,11.4-17,17.1c-14.8,16.1-31.7,30.8-48.2,45.2c0,10.7-20.1,16-28.8,16
		c2.7-3.3,12.5-6.1,12.9-10.5c3.5-0.9,10.2-4.1,9.7-8.4c2.6-0.2,4-1.6,4.1-4.2c0.7-0.2,1.6-0.5,2.5-0.9c0,0.2,0.1,0.7,0.2,1.2
		c5.2,0.9,22.8-20.6,27.1-25.6c4.8,0.4,13.4-12.8,14-16.3c6,0.8,22.4-28.9,25.5-33.3c8.2-11.6,28.6-34.5,14.6-48.4
		c5.4,0.4,5.3,8.5,6.9,12.8c13.1-6.3,17.8-20.6,25.2-31.3c0.3,0.6,0.7,1.3,1.1,2.1c0.9-0.6,1.8-1.3,2.6-1.9c-3,6-6.9,11.4-10.8,17.5
		c2.5-2,5.1-3.9,7.8-5.7c-4.3,8.8-19,16.4-25.7,24.2c1.5,0.1,2.5,0.2,4,0.4c-2,2.7-6,3.8-4.9,7.6c-2.1,2.6-4.1,5.1-6,7.6
		c1.1,1.4,2.1,2.6,3.1,3.8c-0.1,0.1-0.2,0.2-0.3,0.4c-0.7-0.6-1.4-1.3-2.2-2c-3.5,3.8-4.6,11.4-6.9,16.4
		C582.1,685.1,584,684.1,585.8,685.1z M559.5,705.4c11.2-5.8,19.2-20.5,23-32.1C571.5,680.6,566.3,694.4,559.5,705.4z"/>
	<path d="M614.5,755.4c1.2-6.4,2-7.7,6.6-12.1c-0.7-1.9-6.5-6.1-4.1-8c2.4,1,3.5,3.8,5.8,4.8c2,0.8,4.9-0.6,6.6,0.2
		c8.9,4.3,1.6,1.7-2.9,5.3c-7.9,6.3-7.8,22.3-6.3,32.3c-2.6,0-5,0-7.5,0c-2.7-13.6-9-27.6-10.5-41.2c-0.8-6.7-0.2-14,0.1-20.7
		c0.1-3.6-2.4-17.4,1.6-16.8c3.5-7.3,3.8-28.8,1.7-37.1c2.5-4.1,3.3-8.2,1.9-12.8c6.5-4.1,1.7-9.4,4.5-15.1c0.8,3.5,2.2,6.6,4,9.6
		c-6.5,15.2-5.1,33.1-6.4,49.6C608.3,708.9,600.7,743.1,614.5,755.4z"/>
	<path d="M894,679.8c0.6,0.7,1.1,1.3,1.7,2.1c-6.9,7.2-7.4,21.2-9,30.7c0.8-0.5,1.4-1,2-1.4c2.4,6.5-10.7,28.4-13.5,35
		c-5.2,12.2-3.2,19.2-1.5,31.8c-2.9,0-5.4,0-8.3,0c0.8-2.8-2.2-4-3.5-5.9c0.1-0.2,0.3-0.4,0.4-0.5c1,0.3,1.9,0.6,3.1,1
		c1.3-4.8-4.3-13.5-5.5-18c0.5,0.4,1,0.7,1.5,1.1c7.1-4-5.7-27.2-2.2-34.1c1.6,8.4,3.3,16.9,4.9,25.3c3.9-4.1,1.6-15.1,2.2-20.7
		c4.1,3.2-2,17.6,0.4,22.3c-2.6,3.7,0.6,6.9,1.1,10.5c4.8-11.6,10.2-24,13.3-36C884,711.3,884.9,688.1,894,679.8z M868.1,770.7
		c-0.2,0.1-0.5,0.1-0.7,0.2c0.4,1.6,0.7,3.3,1.1,4.9c0.2,0,0.3-0.1,0.5-0.1C868.7,774,868.4,772.4,868.1,770.7z M866.7,767
		c0.2,0,0.4-0.1,0.6-0.1c-0.2-0.9-0.5-1.8-0.7-2.7c-0.2,0-0.3,0.1-0.5,0.1C866.3,765.2,866.5,766.1,866.7,767z"/>
	<path d="M246.1,778.1c-1.4,0-2.5,0-3.7,0c-0.4-2.7,1-5.3,0.5-8.6c-3.1,2.9-3.5,7-7.3,8.7c1.8-6.2,6.6-6.8,5.5-13.5
		c0.8,1,1.4,1.6,2.2,2.6c2.1-3.1,1.3-6.3,1.5-9.7c2.1-1.1,2.7-2.7,1.8-5c7.1-4.5,7.4-22.6,9.9-29.7c0.9,2.1-1.2,4.3,1.1,5.5
		c-0.5,1.6-4.8,9.3-1.2,9.6c-1.6,1.8-3.5,3.1-2.7,5.8c3.4-0.7,2.7-4.2,4.6-6c0.2,4.7-3.3,7.2-5.7,10.2c0.5,0.6,0.9,0.9,1.2,1.3
		c-3.5,3-5.2,14.1-6,18.6c0.5,0.8,2.8,0.2,1.8,2.3c0.9-0.2,1.5-0.3,2-0.4C248.4,771.7,246.6,774.4,246.1,778.1z"/>
	<path d="M848.3,773.8c-3.5,0.1-1.9,5.1-6.2,4.1c2.8-5.5,12.2-22.9,9.6-29c3.8-1.9,1.9-7.4,1.5-10.3c-4.7-2.3-1.8-9.2,3.3-9.4
		c-1.1,1.6-2.1,3.2-3.3,4.9C861.6,742.6,850,764.3,848.3,773.8z"/>
	<path d="M824,778.1c-1.3,0-2.2,0-3.4,0c1-8.2-1.1-14.8-1.1-22.9c0.2-0.1,0.4-0.1,0.6-0.2c1.5,3.6,3.1,7.1,4.7,10.9
		c0.9-0.3,1.6-0.5,2.4-0.8C828.4,767,824.6,775.4,824,778.1z"/>
	<path d="M204.4,778c0.7-1.8,16.4-12,19-10.4C221.2,771.4,209.1,779.2,204.4,778z"/>
	<path d="M1026.2,763.6c0.9,0.8,1.5,1.4,2.4,2.2c-2.5,1.9-6.7,13.7-10.2,12.1C1019.7,772.6,1023.8,768.8,1026.2,763.6z"/>
	<path d="M742.5,778.1c-0.8,0.2-1.6,0.2-2.4-0.1c-0.5-3.2-0.7-7.4-0.3-10.5c0.8,1,1.6,2.1,2.4,3.1c0.5-0.3,0.8-0.5,1.5-0.9
		C743.3,772.6,742.9,775.2,742.5,778.1z"/>
	<path fill="#FFFFFF" d="M80.9,725.5c3.1-0.1,3.6,0.6,3.3,3.8c-3-0.1-3.6-0.9-3.2-3.9C81,725.3,80.9,725.5,80.9,725.5z"/>
	<path d="M769.5,615.6c-0.6-3.1-0.8-6.3-0.7-9.4c0.2,0,0.5,0,0.7,0C769.4,609.4,769.4,612.5,769.5,615.6
		C769.4,615.7,769.5,615.6,769.5,615.6z"/>
	<path d="M1113.8,593.8c-1.4,1-2.9,2-4.2,3C1109.7,594.5,1109.7,594.5,1113.8,593.8z"/>
	<path d="M177.4,665.3c0.1-2.1-2.7-3.2-1.7-6.3c1,2.4,1.7,4.2,2.5,6.1C178,665.2,177.7,665.2,177.4,665.3z"/>
	<path d="M42,527.7c-1.4,1.7-2.9,3.3-4.4,5c-0.1-2.8,2.9-3.5,3.6-5.6C41.5,527.3,41.7,527.5,42,527.7z"/>
	<path d="M317.6,589.4c0.2-1.6,0.4-3.2,0.6-5.2c1.6,2.1-0.2,3.6,0.1,5.3C318.1,589.5,317.8,589.5,317.6,589.4z"/>
	<path d="M624.9,580c1.6-1.2,3.3-2.4,4.9-3.6c0.1,0.2,0.2,0.3,0.4,0.5c-1.1,1.8-3.4,2.2-5,3.3C625,580.1,625,580.1,624.9,580z"/>
	<path fill="#FFFFFF" d="M482.2,619.1c-0.5,0.9-1,1.8-1.7,2.8c-0.9-1.9-0.9-1.9,0.5-3.4C481.4,618.7,481.8,618.9,482.2,619.1z"/>
	<path d="M308.9,621.3c1.7,1.8,2.9,3.1,4.1,4.4C310.1,624.3,309.8,623.9,308.9,621.3z"/>
	<path d="M51.9,757.2c-1.7,0.9-3-0.2-4.4-1C49.5,755.9,50.3,756.1,51.9,757.2z"/>
	<path d="M1041.3,656.9c3.2-2.4,3.2-2.4,5.3-2C1044.6,655.5,1043.4,657.2,1041.3,656.9C1041.3,656.8,1041.3,656.9,1041.3,656.9z"/>
	<path d="M1108.2,605c0-1.3,0-2.4,0-3.6C1109.7,602.3,1109.7,602.3,1108.2,605z"/>
	<path d="M204.6,659.8c-0.3-2.4-0.6-4.8-0.9-7.2C204.1,654.9,205.9,657.2,204.6,659.8C204.5,659.8,204.6,659.8,204.6,659.8z"/>
	<path d="M333.6,597.8c0.5-1.6,1-3.1,1.5-4.7c0.2,0.1,0.4,0.1,0.6,0.2c-0.5,1.6-0.9,3.2-1.4,4.7
		C334.1,597.9,333.9,597.9,333.6,597.8z"/>
	<path d="M210.2,608.9c0,1.6,0,3.3,0,4.9c-0.1,0-0.1,0-0.2,0c-0.2-1.6-0.3-3.3-0.5-4.9C209.8,608.9,210,608.9,210.2,608.9z"/>
	<path d="M202.3,638.7c0.1,1.5,0.3,3,0.5,4.8C201.6,641.5,201.6,641.5,202.3,638.7z"/>
	<path d="M316.4,602.7c-1.3-1.2-1.3-1.2-0.8-3.3C315.9,600.4,316.1,601.4,316.4,602.7z"/>
	<path d="M203,645.9c0.3,1.1,0.6,2.1,0.9,3.2c-0.2,0-0.4,0.1-0.5,0.1c-0.2-1.1-0.4-2.2-0.7-3.3C202.8,646,202.9,646,203,645.9z"/>
	<path d="M259.5,777.7c-0.1-0.9-0.2-1.8-0.3-2.7c0.2,0,0.5-0.1,0.7-0.1C260.6,775.8,260.2,776.7,259.5,777.7z"/>
	<path d="M348.7,644.5c1.5-0.7,3-1.3,4.6-2l-0.1-0.1C351.9,644.7,350.4,645.4,348.7,644.5C348.6,644.4,348.7,644.5,348.7,644.5z"/>
	<path d="M353.2,642.5c1.1-1.2,1.9-2.7,3.8-2.9l-0.1-0.1C355.9,640.8,355,642.2,353.2,642.5C353.2,642.5,353.2,642.5,353.2,642.5z"
		/>
	<path d="M357,639.7c0-1.8,1.5-2.3,2.6-3C359.3,638.2,357.9,638.7,357,639.7C356.9,639.6,357,639.7,357,639.7z"/>
	<path d="M299.3,595.5c0-1.5,0-2.3,0-3.2C299.7,593.1,300.5,593.9,299.3,595.5z"/>
	<path d="M203.8,756.5c0.6-0.9,1.3-1.7,1.9-2.6c0.2,0.2,0.4,0.4,0.6,0.6C205.6,755.2,205,756.2,203.8,756.5
		C203.8,756.5,203.8,756.5,203.8,756.5z"/>
	<path d="M364.7,629.1c-0.5,0.7-1,1.4-1.4,2.1c-0.1-0.1-0.3-0.2-0.4-0.2c0.5-0.7,0.9-1.5,1.4-2.2
		C364.4,628.8,364.5,628.9,364.7,629.1z"/>
	<path d="M865.7,722.4c0.1-1.2,0.1-1.8,0.2-3C867,720.7,866.8,721.4,865.7,722.4z"/>
	<path d="M261.2,730.7c-0.4,0.7-0.8,1.5-1.2,2.2c-0.1-0.1-0.3-0.1-0.4-0.2c0.3-0.8,0.6-1.6,0.9-2.4
		C260.7,730.6,261,730.6,261.2,730.7z"/>
	<path d="M619.5,624.1c0.5-0.5,1-1.1,1.5-1.6c0.1,0.1,0.2,0.2,0.4,0.3c-0.5,0.6-0.9,1.2-1.4,1.8
		C619.9,624.4,619.7,624.2,619.5,624.1z"/>
	<path d="M220.4,620.4c-0.2,0.7-0.3,1.4-0.5,2.1c-0.1,0-0.2,0-0.4,0c0.1-0.8,0.1-1.5,0.2-2.3C219.9,620.3,220.1,620.3,220.4,620.4z"
		/>
	<path d="M814.5,674.9c-0.1,0-0.2,0-0.3,0c-0.1-1.1-0.3-2.2-0.4-3.4c0.2,0,0.3,0,0.5-0.1C814.4,672.7,814.5,673.8,814.5,674.9z"/>
	<path d="M631.1,575.4c1.6-1.7,2.4-0.5,3.4-0.2C633.6,575.3,632.7,575.4,631.1,575.4z"/>
	<path d="M222.3,719.8c0.8-0.6,1.7-1.2,2.5-1.8c0.1,0.2,0.3,0.4,0.4,0.6c-0.9,0.5-1.8,0.9-2.8,1.4L222.3,719.8z"/>
	<path d="M448.7,481.7c0.1,0.6,0.3,1.1,0.4,1.7c-0.1,0-0.3,0.1-0.4,0.1c-0.2-0.6-0.3-1.1-0.5-1.7
		C448.4,481.8,448.5,481.8,448.7,481.7z"/>
	<path d="M287.6,500.3c0,0.7,0.1,1.5,0.1,2.2c-0.1,0-0.3,0-0.4,0c0-0.7-0.1-1.4-0.1-2.2C287.3,500.4,287.5,500.3,287.6,500.3z"/>
	<path d="M291.4,519c-0.6-0.6-1.2-1.2-0.9-2.4C291.7,517.4,291.2,518.3,291.4,519C291.3,519.1,291.4,519,291.4,519z"/>
	<path d="M315.4,629.3c-0.6-0.5-1.3-0.9-1.9-1.4C314.9,627.6,315.3,628.3,315.4,629.3C315.4,629.3,315.4,629.3,315.4,629.3z"/>
	<path d="M260.4,632.7c0.4,0.3,0.8,0.6,1.1,1c-0.1,0.1-0.2,0.2-0.2,0.4c-0.4-0.3-0.9-0.5-1.3-0.8
		C260.1,633.1,260.2,632.9,260.4,632.7z"/>
	<path fill="#FFFFFF" d="M1053.8,572c5.6,10.9-1.2,32,0.1,44.2c1.3,11.7,7.8,23.3-4,29.8c-12.7,7-28.1,12.9-42.3,16.1
		c-12.7,2.9-25.2,8.5-38.3,7.4c0.8-2.5,7-11.3,6.4-13.1c-0.7,0.1-1.3,0.2-2,0.4c-1.6-4.9,6.5-17.6,8.5-21.7
		c4.5-8.9,9-17.5,12.4-27.3C1001.2,588.5,1036.3,579.6,1053.8,572z"/>
	<path fill="#FFFFFF" d="M1048.6,527.3c1.3,13.5,3,26.7,5.1,40.1c-19.1,7.7-36.9,16.6-54.5,27.3c0.2-5.2,3.9-9.1,4.5-14.3
		c-2.9,7.9-6.3,20.6-17.4,19.9c2.6-4.1,15.6-20.2,12.8-24.7c-2.6,2.4-7.6,9.5-11.5,7.5c-15,5.6-17.1,31.1-33.1,32.4
		c-3.1-10.5-5.3-19.8,1.7-28c7.6-9,17.5-15.5,27.4-21.7C1005.1,552.1,1025.2,537.6,1048.6,527.3z M1004.9,578.9
		c0.7-0.4,1.3-0.9,1.7-1.7C1005.7,576.6,1004.8,578,1004.9,578.9z"/>
	<path fill="#FFFFFF" d="M779,681.6c-0.6-0.8-0.9-1.2-1.3-1.7c-0.1,0-0.2,0.1-0.3,0.1c0.3,1.2,0.6,2.5,1,3.9
		c-2.1,1.7-2.1,9.6-2.7,12c-1.6-1-3-1.8-4.3-2.6c-0.1,0.2-0.3,0.3-0.4,0.5c0.8,0.8,10.3,12.1,3.7,11.1c2.9,10.3,4.8,22.7,4.2,33.6
		c-10.3-13.2-19.9-26.9-32-38.3c0.2-0.9,0.4-1.7,0.7-3.2c-0.9,1-1.3,1.5-1.8,2c-10.2-3.1,1.5-18.7,2.2-23c1.3-7.3-4.7-15.5-5.4-23.4
		c10.9-8.2,15.8-20.8,28.5-28.3c4.7,12.4-4.2,27.5,2,39.3C777.3,671.9,781.6,670.5,779,681.6z M774.8,675.3c0.9,1,1.6,1.7,2.3,2.5
		C776.9,676.6,777.4,675,774.8,675.3z"/>
	<path fill="#FFFFFF" d="M791.6,682.5c-6.1-10.3-13.1-19-7.5-31.7c-1.1,0.5-1.8,0.9-2.5,1.2c-1.3-1.6,2.5-15,2.9-17.3
		c-0.4,0.2-0.9,0.5-1.6,0.8c-0.2-3.9-0.4-7.9-0.6-12.4c-2.2,5.2,0.3,12,0,17.3c-0.4,6.5-2.2,12.5-2.2,19.3c-1.1-0.4-1.9-0.7-2.8-1.1
		c-0.9,2.8,3.7,4.2,2.5,7.8c-12.2-10-4.7-29.2-7.4-43.2c3-2.6,6.5-6.7,10.5-7.8c11.1-10,26.7-18.1,39.4-26.5
		c7.1,10.4-8.4,38.5-12.2,48.2c-2.8,7.1-5.6,14.4-6.7,22c-0.5,3.7-0.6,10.8-2.6,13.3c-0.5-0.9-0.8-1.6-1.2-2.3
		C796.2,674.6,796.1,678.1,791.6,682.5z"/>
	<path fill="#FFFFFF" d="M924.6,528.8c10.6,14.4,15.3,27,14.8,45.3c-0.4,15.8,1.1,22.6-10.6,34.4c-7.2-3.2-15.6-6.3-17.4-14.2
		c-1.4-6.4,2.5-16.1,3.9-22.5c1.6-7.2,4.2-13.9,6.1-21C923.3,543.7,922.3,535.3,924.6,528.8z"/>
	<path fill="#FFFFFF" d="M766.8,767.6c-12.8-17.4-26.7-42.8-23.9-65.4c11.3,5.6,22.2,21,28.5,31.6
		C778.8,746.2,774.1,756.1,766.8,767.6z"/>
	<path fill="#FFFFFF" d="M935.3,667.5c-3.1,4.4-24.8,2.7-29.7,2.5c-2.5-4.8,9.4-13.8,5.4-17.8c-8,3.5-5.6,15.7-15.7,18.4
		c-7.3,2-17.9,0.6-25.6,1.4c6.1-6.4,14.4-12,22.2-16.2c4.4-2.4,13.3-3.3,16.3-6.6c-1.9,0-3.9,0-6.3,0
		C908.3,637.8,930.2,662.1,935.3,667.5z"/>
	<path fill="#FFFFFF" d="M717.7,678.8c1,2.1,1,4.2-0.4,6.4c-0.4-2.3-0.8-4.5-1.2-6.8c-0.2,0-0.5,0-0.7,0c-2.9,7.9,3.6,29.2-2.9,35
		c-5.7-4.5-4.6-10.4-3.1-16.1c1.5-5.6,1.6-13.1,3.5-18.3c4.3-12.1,18.6-15,25-24.7c2.7,4.9,1.1,14.3,1.1,19.7
		c-1.6,0.5-2.5-0.7-3.9-1c1.9,3,7.2,9.9,0.8,12.5c-4.2,1.7-7.5-5.3-9.6-8.7c-0.2,0.1-0.4,0.2-0.6,0.3c1.3,3.7,3.6,9.3,6.2,12.3
		c-4.5,5.7-9.4,15.6-15.2,19.5c0.6-8.4-0.4-17.4,3.6-25c-1.9-2.7,0-5.3-0.3-8.1C719,677.6,719,677.5,717.7,678.8
		c0.6-1,0.3-1.8-1-2.8C717.2,677.1,717.4,678,717.7,678.8z"/>
	<path fill="#FFFFFF" d="M994.6,601.3c0.9,7.8-6.1,19-9.8,25.5c-2.6,4.6-7.4,18.1-11.5,19.6c2.6,7.4-2.6,11.5-7.8,13.1
		c-0.2-0.8-0.4-1.3-0.5-1.9c-0.4,0.6-0.9,1.2-1.7,2.3c-3.2-11.8-1.5-26.1,4.5-36.9C973.3,612.5,984,606.7,994.6,601.3z"/>
	<path fill="#FFFFFF" d="M736.4,623.5c1.1,7.4,0.7,14.8,0.6,22.3c-6.2,1-11.2,9.2-15.5,13.9c-6,6.4-12,13.3-17.4,20
		c-2.5-2.8-8.4-7.9-8.4-11.6c0-5,9.8-10.9,12.7-13.9c10.5-10.4,19.3-18.8,27.4-31C736,623.4,736.2,623.5,736.4,623.5z"/>
	<path fill="#FFFFFF" d="M947.9,662.3c-2.4,0.9-4.8,1.9-7.1,2.8c-9.5-7.8-20.8-14.1-24.9-26.1c6.7-2.8,13.4-5.5,20.4-7.4
		c8.9-2.5,8-3.4,10.3,5.2c-0.8,1.8-2.1,3.1-3.7,4.2c0.7,2.2,1.8,4.1,3.3,5.9C947.3,652.2,947.9,656.8,947.9,662.3z"/>
	<path fill="#FFFFFF" d="M792,686.6c1.8,1.7,5.7,12.9,3.2,14.9c5.2,12.9,2.6,23.9-7.4,32.4c-1.3-3.1-7.4-24.4-5.5-26.5
		C780.1,700.9,787,690.7,792,686.6z"/>
	<path fill="#FFFFFF" d="M1049.8,725.2c2.7,11.7,7.2,25.6,4.8,37.8c-0.5-1.1-0.7-1.7-1.2-2.7c-0.5,1.9-0.9,3.2-1.4,5.3
		c-6.3-11.4-11.3-22.5-15.6-34.8C1040.8,728.4,1045.4,727.3,1049.8,725.2z"/>
	<path fill="#FFFFFF" d="M926,508.8c-4.7-11.9-6.8-20-4.1-32.9c1.2-5.9,4.1-11.5,5.2-17.4c0.7-4.2-1.1-10.7,2.3-13.8
		c0.2,12.3-2.1,24.7-2.3,36.9C927,489.6,930.6,501.6,926,508.8z"/>
	<path fill="#FFFFFF" d="M929,480.7c0.7-6.9,0.6-13.7,0.6-20.2c0.1-10.2-2-16.7,8.4-19.8C936.5,450.2,936.6,474.6,929,480.7z"/>
	<path fill="#FFFFFF" d="M1068.7,491.7c-2.8,7.3-8.6,15.7-13.5,21.7c-1.9-11.5,2.6-17.4,13-22.1
		C1068.4,491.5,1068.5,491.6,1068.7,491.7z"/>
	<path fill="#FFFFFF" d="M1096.1,694.8c-2.7-0.1,1.1-10.4,1.2-10.8c-5,0,4-19.5,4.8-21.2C1102.1,665,1100.6,695.8,1096.1,694.8
		L1096.1,694.8z"/>
	<path fill="#FFFFFF" d="M911.5,606.9c4,1.3,7.8,4.3,11.3,6.5c-2.3,4.2-6.4,6.4-9.7,10.4C911.6,617.9,913.4,612.5,911.5,606.9z"/>
	<path fill="#FFFFFF" d="M936.1,621.1c-3,3.8-14.7,10.4-18.1,10.2C922,622.5,927.3,617,936.1,621.1z"/>
	<path fill="#FFFFFF" d="M1075.6,499.4c-0.1-3.1,1.4-3.7,2.9-4c-0.6-8,9.2-10.5,15.4-10.1C1090.4,491.2,1081,495.9,1075.6,499.4z"/>
	<path fill="#FFFFFF" d="M781.7,694.5c-0.3-2.8-1.2-5.7,1-8.1c-2.1-3.3-0.7-6.5-0.1-10c2.6,1.2,3.5,3.2,4,5.4c7.2,0.8-2.3,11-4.2,13
		C782.1,694.7,781.9,694.6,781.7,694.5z"/>
	<path fill="#FFFFFF" d="M1100,646c8.3,4.5-0.3,19-2.6,23.9c-0.2,0-0.4-0.1-0.6-0.1C1097.5,661.7,1098.1,653.9,1100,646z"/>
	<path fill="#FFFFFF" d="M798.6,683.8c1.9,5.1,1,6.9-0.3,12.3c-4.1-9.7-4.7-12,2.8-19.6c0.5,3-0.4,5.4-0.7,8.1
		c-0.7-0.6-1.1-0.9-1.5-1.1C798.8,683.5,798.7,683.7,798.6,683.8z"/>
	<path fill="#FFFFFF" d="M799.8,704c2.3,3.5,6.2,9.5,4.4,14c-0.5-0.2-1-0.3-1.4-0.5c0.4,3.7,0.2,4.1-2.3,5.2
		c-0.3-6.2-0.7-12.4-1-18.6C799.6,704.1,799.7,704,799.8,704z"/>
	<path fill="#FFFFFF" d="M792.2,770.5c-1.6-5.1-6.3-14.3-4.2-19.6C792.2,754.8,794.6,764.8,792.2,770.5z"/>
	<path fill="#FFFFFF" d="M1084.7,697.3c2.8,5.1,4.2,6.9,2.2,12.4c-1.7-2-3.1-8.5-2.8-12.2C1084.3,697.4,1084.5,697.4,1084.7,697.3z"
		/>
	<path fill="#FFFFFF" d="M1030.6,722.4c0.5,1.5,1,2.9,1.5,4.5c-2.7,1.3-5.2,2.5-7.7,3.7C1024.2,728.5,1024.2,728.5,1030.6,722.4z"/>
	<path fill="#FFFFFF" d="M1096,694.8c0.5,3.5-0.6,13.7-4.3,15.4C1092.7,704.4,1093.5,699.9,1096,694.8
		C1096.1,694.8,1096,694.8,1096,694.8z"/>
	<path fill="#FFFFFF" d="M942.2,666.7c1.9-0.8,3.7-1.5,5.4-2.2c1.4,1.7,1,3.3,0.7,4.9C945,670.4,944.8,670.3,942.2,666.7z"/>
	<path fill="#FFFFFF" d="M782.8,720.9c1.6,3.6,2.9,7.3,2.5,11.4c-3.7,1.6-3.1-9.6-3.4-11.3C782.2,720.9,782.5,720.9,782.8,720.9z"/>
	<path fill="#FFFFFF" d="M965.3,669.3c0.2-0.9,0.3-1.7,0.6-2.7c-0.5,0.2-0.8,0.3-1.3,0.4c-0.6-1.6,0.2-3.1,0.3-4.5
		c1.5-0.4,3-0.7,4.8-1.2c-0.3,1.2-0.6,2.3-0.9,3.3c-0.2,0.1-0.5,0.2-0.7,0.3c-0.3-0.7-0.6-1.4-0.9-2.2c-0.3,0.2-0.6,0.4-0.8,0.6
		C967.1,665.4,969,669.1,965.3,669.3z"/>
	<path fill="#FFFFFF" d="M801.4,751.2c1.5,3.5,1.1,8.6,1.1,12.5c-0.2,0.1-0.4,0.2-0.6,0.3c-2.7-3.7-1.3-8.2-1-12.6
		C801.1,751.3,801.3,751.3,801.4,751.2z"/>
	<path fill="#FFFFFF" d="M796.7,750.3c1.5,3.3,1,6.7-0.1,10C794.8,757,796,753.7,796.7,750.3z"/>
	<path fill="#FFFFFF" d="M936.8,611.1c1.4-1.6,2.7-3,4.1-4.5C942.2,609.5,940.4,614.7,936.8,611.1z"/>
	<path fill="#FFFFFF" d="M1090.8,713.3c1.6,3-0.4,4.9-0.3,7.6C1087.9,718.2,1088.7,716.1,1090.8,713.3z"/>
	<path fill="#FFFFFF" d="M991,667.5c2.5-1.8,5.5-2.2,8.5-2.4C997.2,667.8,993.9,666.9,991,667.5z"/>
	<path fill="#FFFFFF" d="M1008.6,664.1c-2.2,0.8-4.4,1.5-6.9,2.4c1.1-2.8,3.4-3.7,6.7-2.8C1008.5,663.8,1008.5,663.9,1008.6,664.1z"
		/>
	<path fill="#FFFFFF" d="M1086.4,723.5c0.7,1.8,1.9,3.5,1.5,6.1C1086,727.6,1085.8,725.6,1086.4,723.5z"/>
	<path fill="#FFFFFF" d="M792.3,750c-1-3.1-0.7-4.6,1.6-6.1c-0.3,2.3-0.6,4.3-0.9,6.2C792.8,750,792.5,750,792.3,750z"/>
	<path fill="#FFFFFF" d="M740.7,694c-3-1.9-3-2.1-0.3-4.4C740.5,691.1,740.6,692.3,740.7,694z"/>
	<path fill="#FFFFFF" d="M799.7,770.4c0-1.9,0-3.6,0-5.5C801.2,767.2,801.2,768.2,799.7,770.4z"/>
	<path fill="#FFFFFF" d="M990.5,765.5c-0.4-1.2-0.9-2.4-1.4-3.9C992.2,763.3,992.4,763.7,990.5,765.5z"/>
	<path fill="#FFFFFF" d="M1119.9,473.2c1.8-0.8,3.5-1.7,5.7-2.7C1124,472.3,1122.9,472.9,1119.9,473.2z"/>
	<path fill="#FFFFFF" d="M964.9,676.6c-1.4-3-1.4-3,1.2-4C965.7,674,965.3,675.1,964.9,676.6z"/>
	<path fill="#FFFFFF" d="M1092.3,546.6c-0.7,0.5-1.5,1.1-2.2,1.6c-0.1-0.2-0.2-0.3-0.4-0.5c0.7-0.5,1.5-1.1,2.2-1.6
		C1092.1,546.2,1092.2,546.4,1092.3,546.6z"/>
	<path fill="#FFFFFF" d="M735.3,650.2c-0.6,0.4-1.2,0.7-1.8,1.1c-0.1-0.2-0.2-0.3-0.3-0.5c0.6-0.4,1.2-0.7,1.8-1.1
		C735.1,649.8,735.2,650,735.3,650.2z"/>
	<path fill="#FFFFFF" d="M803.6,743c0,0.4-0.1,0.8-0.1,1.2c-0.2,0-0.5-0.1-0.7-0.1c0.1-0.4,0.2-0.8,0.4-1.2
		C803.3,742.9,803.4,743,803.6,743z"/>
	<path fill="#FFFFFF" d="M456.6,718.7c-2.9-11.5-4-24.1-4.8-35.4c-0.2-2.8,3-17.8-0.6-18.3c9-12.2,17.7-23.3,28.7-33.8
		c4,2.1,7.9,11.2,9.4,15c4.6,11.2,5.4,16,2.7,28.1C488.2,691.3,468.5,706.3,456.6,718.7z"/>
	<path fill="#FFFFFF" d="M581.7,600.1c-17.6,20.4-37.4,41.2-59.2,57.2c-0.2-0.5-0.4-1.1-0.6-1.7c-2.7,5.4-6.7,7.2-12.3,9.4
		c-0.5-1.1-0.9-1.9-1.6-3.5c-1.4,7.9-2,10.2-8.8,15.1c0.5-8.7,8-16.6,10.4-24.8c2.8-9.5,0.1-21.8,7.2-29.3
		c6.7-7.2,21.7-11.2,31-14.6C556.4,604.8,572.4,598.2,581.7,600.1z"/>
	<path fill="#FFFFFF" d="M462.3,615.7c2,4.9,4,9.9,6.1,15.1c-6.3,7.6-10.9,16.9-17.1,24.7c-2.3-15.1,0.2-39.1,9.4-52.2
		c4.2,7.4,8.7,14.3,13.6,21.2c-7.3,8.7-8.1-2.5-11.2-9.2C462.7,615.4,462.5,615.6,462.3,615.7z"/>
	<path fill="#FFFFFF" d="M475.4,616.8c-3.9-4.2-10.3-10.7-12-16.2c-2-6.5,0.8-22.5,3.9-28.7c10.8,4.2,8.7,8.5,7.3,19.9
		c-1.1,8.8-0.1,15.7,1.4,24.6C475.8,616.5,475.6,616.7,475.4,616.8z"/>
	<path fill="#FFFFFF" d="M484.1,627.2c3-6.2,16.4-4.8,22.1-5.2c-3.1,7.5-5.2,16.3-9.4,23.2C492.2,642.3,487.9,631.5,484.1,627.2z"/>
	<path fill="#FFFFFF" d="M440.3,552.4c2.2,2.6,3.1,5.6,3.4,9.5C441,558.9,439.7,556,440.3,552.4z"/>
	<path fill="#FFFFFF" d="M633.9,340.7c-0.5-0.4-1-0.9-1.6-1.4c0.5-0.6,1-1.2,1.9-2.3c0.2,1.7,0.2,2.6,0.3,3.5
		C634.3,340.6,634.1,340.6,633.9,340.7z"/>
	<path fill="#FFFFFF" d="M506.5,642c0.4,1.8,0.5,2.9-1.1,3.4C504.6,644,505.4,643.3,506.5,642z"/>
	<path fill="#FFFFFF" d="M105.3,616.1c0.5-0.2,1.1-0.4,1.9-0.8c-2.2,11.8,0.8,26.4-2.5,38.9c-4.9-3.5-10.3-8-13.5-13.2
		c-19-13.4-18.4-36.2-12.2-54.9c1.5-4.6,5.8-7.8,7.5-11.9c2.6-6.4-0.5,2.6-0.4-7.9c0-14.4,8.5-24.6,13.5-37.2
		c1.9,3.6,1.8,6.3-0.1,9.7c4,6.6,5,10.6,6.1,18.4c-0.7,0.3-1.3,0.6-1.8,0.9c-0.7-1.3-1.3-2.5-1.9-3.8c-0.2,0.1-0.5,0.2-0.7,0.3
		c3.6,10.2,7.9,17,9.1,27.9c1.3,11.8-0.4,22.4-5.5,33C105,615.9,105.2,616,105.3,616.1z"/>
	<path fill="#FFFFFF" d="M128,573.1c3.1,6.5-1.7,13.1,1,19.6c-1.2,7.7,2.7,16.7,3.8,24.3c1.2,8.3,0,16.7,1.2,24.8
		c1.7,11.7,2.9,23.4,4.4,35.1c1.5,12,10.2,23,17.6,32.1c5.6,6.9,22.4,19,12.1,27.2c-17.7-17.7-28-39.9-43.3-59.7
		c-3.3-4.2-11.3-10.4-12.8-15.1c-1.7-5.1,1.2-12.4,1.4-17.9c0.4-11.3-1.1-26.1,4.6-36.2c-0.7-0.3-1.3-0.6-2-1
		C113.7,597.7,121.8,577.9,128,573.1z"/>
	<path fill="#FFFFFF" d="M97.8,678.3c-0.4-0.9-0.7-1.5-1-2.3c-1.1,0.3-2.1,0.6-3.1,0.9c1.9,10.9-1.2,22.2-6.9,31.5
		c-3.1-5.3-6.2-14.2-4.1-20.3c-8.7-2.4-10.3-24.7-20.9-25.1c0.2,0.9,0.5,1.8,0.8,3.1c-14.4-9.9-31.6-21.1-26.3-40.5
		c14.2,1.9,28.9,6.6,38.4,17.9C79.8,649.5,103.1,670.5,97.8,678.3z"/>
	<path fill="#FFFFFF" d="M123,561.3c1.3,1.1,2.5,2.2,3.9,3.3c-0.2,2.7-1.5,4.8-3.7,6.9c-0.4-1.6-0.8-3-1.1-4.3
		c-0.1,0-0.3,0.1-0.4,0.1c0.4,6.1,0,6.3-5.1,10.2c-4.2-12.1-5-20.5-5.4-32.2c-0.9,0.3-1.9,0.6-2.8,0.9c-5.4-10.9-4.6-22.7,3.2-31
		c10.2,8.1,20.5,30.9,17.3,43.7c-1.5-2.6-2.6-4.4-3.6-6.3c-0.1,0.1-0.3,0.1-0.4,0.2c1.1,2.5,2.1,5,3.2,7.5c-0.2,0.1-0.4,0.2-0.6,0.3
		c-0.6-0.6-1.3-1.2-2-1.6c0.3,1.5,0.5,2.4,0.8,3.5C125,562.1,123.9,561.8,123,561.3c-0.4-0.5-0.8-1.1-1.1-1.7
		c-0.2,0.1-0.4,0.2-0.6,0.3c0.2,0.7,0.3,1.4,0.5,2.2C122.3,561.7,122.6,561.5,123,561.3z"/>
	<path fill="#FFFFFF" d="M198.3,696.5c3.9,10.8,10.6,24.4,7.4,36c-2.7,9.7-6.3,27.2-12.2,34.8c-3.2-25.8-7.5-48.3,2.9-72.9
		c0.8,0.8,1.4,1.5,2,2.2L198.3,696.5z"/>
	<path fill="#FFFFFF" d="M112.8,713c-0.1-1.1-0.2-2.1-0.3-3.3c-4,0.7-4.2,4.6-6.2,6.8c-1.1-1.3-2.3-0.2-3.3-0.1
		c0.2,1.7,0.4,3.3,0.6,5c-3.6,3.1-3.9,8-7.7,10.6c-8.8-10.9,2.3-30.6,6.9-41.5c0.5,0.7,0.9,1.2,1.2,1.6c2.4-0.7-0.3-8.4,1.7-10.7
		c5.2,0.2,15.8,15.1,16.9,19.8C124,707.1,120.6,711.5,112.8,713z"/>
	<path fill="#FFFFFF" d="M198.4,696.6c-0.4-1.1-0.7-2.2-1.1-3.5c5.2-7.2,7.5-15.9,14.1-22.2c0.1,0.6,0.2,0.9,0.3,1.3
		c1.6-3.5,5.2-3.2,8.4-4.9c1.6,12.1-0.6,39.1-8.6,48.4c2,2.6-1.1,8.1-3.3,9.5c-0.9-3.9-6.4-28.8-9.9-28.7
		C198.3,696.5,198.4,696.6,198.4,696.6z"/>
	<path fill="#FFFFFF" d="M33.1,671.2c4.2,8.8,5.5,25.7-2.7,32.7c-0.8-2.2,1.7-2.6,1.7-4.2c-0.9-0.2-1.8-0.5-2.5-0.7
		c-3.3,11.4-0.3,29.3-8.5,38.4c-0.3-0.6-0.6-1.2-1.1-2.3c-0.9,1.7-1.6,3.1-2.6,4.9c-6.1-12.9-0.5-25.2,1.8-38.9
		C20.8,691.3,27.4,679.5,33.1,671.2z"/>
	<path fill="#FFFFFF" d="M137.2,542.3c-1.5-16.2-1.5-40.1,18.1-43.8C152.3,513.5,147.9,530.8,137.2,542.3z"/>
	<path fill="#FFFFFF" d="M122.3,520.6c-11.1-7.2-4.9-21.1,1.2-30c5.4,13.5,7.7,27.7,5.8,42C126.1,531.8,123.5,523.4,122.3,520.6z"/>
	<path fill="#FFFFFF" d="M29.1,755c-0.1-0.4-0.2-0.9-0.4-1.6c-0.5,0.3-1,0.6-1.5,0.9c-10.8-3.2-3.2-14.4,0.7-19.5
		c3,1.1,3.7,3.3,2.6,8.8c-0.7,0-1.5,0.1-2.3,0.2C28.1,744.1,34.7,755.7,29.1,755z"/>
	<path fill="#FFFFFF" d="M10.5,719.8c-3.8-11.4-5.1-12.6,4.2-20c1.9,4.5-2,15.9-3.5,20C11,719.8,10.7,719.8,10.5,719.8z"/>
	<path fill="#FFFFFF" d="M33.7,704.4c2.3,5.5-2.4,14.3-2.2,19.9c-0.4-0.6-0.9-1.2-1.3-1.9c-0.2,0.1-0.4,0.2-0.6,0.2
		c0.4,1.4,0.8,2.8,1.2,4.3c-0.7,0.1-1.3,0.3-2,0.4c1,0.6,1.8,1.2,3,1.9c-0.1,1.1-0.3,2.2-0.5,3.5C23.5,731.6,30.8,708.7,33.7,704.4z
		"/>
	<path fill="#FFFFFF" d="M29.5,593.6c-6.1-2.8-2.9-13.8-1.3-18.5C29.8,577.4,30.7,589.8,29.5,593.6z"/>
	<path fill="#FFFFFF" d="M103.4,524.2c0.6,3.3,1.6,5.5-0.9,7.8C100.4,529.7,100.1,526.1,103.4,524.2z"/>
	<path fill="#FFFFFF" d="M222.9,651.2c0.7,2.7-1.2,4.4-1.2,6.6C219.3,656.1,219.5,654.6,222.9,651.2z"/>
	<path fill="#FFFFFF" d="M10.5,487.2c0.6,1.6,1,3.3,1.3,5C12.1,492.4,7.4,487.2,10.5,487.2z"/>
	<path fill="#FFFFFF" d="M13.7,758.8c-0.6,0.2-1.2,0.4-2,0.7c-0.1-0.7-0.2-1.3-0.3-1.8c0.9-0.3,1.6-0.5,2.7-0.9
		c-0.2,0.8-0.3,1.5-0.4,2.1C13.6,758.9,13.7,758.8,13.7,758.8z"/>
	<path fill="#FFFFFF" d="M219.4,661.3c-1.3-1.2-1.3-2.3-0.8-3.8C220,658.6,220.3,659.7,219.4,661.3z"/>
	<path fill="#FFFFFF" d="M231.1,634.2c0,0.7,0,1.4,0,2.3c-1.2-0.4-1.3-1.2-0.4-2.4C230.9,634.1,231,634.2,231.1,634.2z"/>
	<path fill="#FFFFFF" d="M559.5,705.4c6.8-11,12-24.8,23-32.1C578.7,684.9,570.8,699.5,559.5,705.4z"/>
	<path fill="#FFFFFF" d="M868.1,770.7c0.3,1.7,0.6,3.3,0.9,5c-0.2,0-0.3,0.1-0.5,0.1c-0.4-1.6-0.7-3.3-1.1-4.9
		C867.6,770.8,867.8,770.8,868.1,770.7z"/>
	<path fill="#FFFFFF" d="M866.7,767c-0.2-0.9-0.4-1.8-0.6-2.7c0.2,0,0.3-0.1,0.5-0.1c0.2,0.9,0.5,1.8,0.7,2.7
		C867.1,766.9,866.9,767,866.7,767z"/>
	<path d="M1004.9,578.9c-0.1-0.9,0.7-2.3,1.7-1.7C1006.2,577.9,1005.7,578.5,1004.9,578.9z"/>
	<path d="M774.8,675.3c2.6-0.4,2.1,1.3,2.3,2.5C776.4,677.1,775.8,676.4,774.8,675.3z"/>
	<path d="M717.7,678.8c-0.3-0.8-0.6-1.6-1-2.8C718,676.9,718.3,677.7,717.7,678.8C717.7,678.8,717.7,678.8,717.7,678.8z"/>
	<path d="M123,561.3c-0.3,0.2-0.7,0.4-1.3,0.8c-0.2-0.8-0.3-1.5-0.5-2.2c0.2-0.1,0.4-0.2,0.6-0.3C122.2,560.2,122.5,560.8,123,561.3
		C122.9,561.4,123,561.3,123,561.3z"/>
</g>
</svg>
